<svg width="48" height="24" viewBox="0 0 48 24" fill="none" xmlns="http://www.w3.org/2000/svg">
<g clip-path="url(#clip0_551_38)">
<path d="M6.59438 10.4675C8.15193 10.4675 9.70948 10.4678 11.267 10.4684C11.6034 10.4689 11.9398 10.4864 12.2762 10.4857C12.392 10.488 12.5073 10.4701 12.6169 10.4328C12.7931 10.3679 12.9411 10.2435 13.0353 10.0811C13.1295 9.91864 13.164 9.7284 13.1329 9.54323C13.0696 9.19532 12.8011 9.00434 12.3514 9.00404C9.56075 9.00217 6.77015 9.00176 3.97955 9.00282C3.86327 9.00281 3.74691 9.00524 3.63074 9.00156C3.14092 8.98605 2.86704 8.75014 2.85479 8.33571C2.84931 8.13011 2.92207 7.93009 3.05836 7.77606C3.19466 7.62203 3.38433 7.52546 3.58907 7.50587C3.7166 7.49595 3.84458 7.49318 3.97241 7.49757C6.15838 7.4972 8.34436 7.49786 10.5303 7.49956C10.8878 7.50028 11.1995 7.42832 11.4064 7.1064C11.7093 6.63516 11.4556 6.07729 10.9023 6.00637C10.7865 5.99593 10.6701 5.99283 10.554 5.99709C7.78661 5.99672 5.01926 5.99663 2.25191 5.99683C1.66038 5.99679 1.35109 5.76539 1.34549 5.3206C1.33953 4.84743 1.72265 4.51066 2.28101 4.51035C5.47857 4.50855 8.67614 4.50673 11.8737 4.50489C12.0701 4.50895 12.2654 4.4761 12.4497 4.40806C12.6105 4.33671 12.7429 4.21352 12.8256 4.05815C12.9082 3.90279 12.9365 3.7242 12.9058 3.55091C12.8316 3.21157 12.5636 3.0145 12.1571 3.00338C12.0293 2.99989 11.9013 3.00218 11.7734 3.00218C9.57581 3.00207 7.37821 3.00188 5.18061 3.0016C4.65355 3.00137 4.35431 2.75564 4.34973 2.32555C4.34503 1.88499 4.69533 1.5206 5.17733 1.51338C6.13057 1.4991 7.08424 1.50062 8.03756 1.51135C8.29449 1.51425 8.42169 1.47067 8.47248 1.17266C8.59852 0.433075 9.15637 0.00849519 9.94097 0.00718078C12.1153 0.00353705 14.2896 0.00305202 16.464 0.00572551C22.4987 0.00569575 28.5334 0.00569795 34.568 0.0057319C34.7076 0.0057319 34.8471 0.00469584 34.9866 0.00631235C35.8774 0.0166317 36.3347 0.507646 36.2649 1.40424C36.1811 2.48212 36.0803 3.55869 35.9884 4.63595C35.9513 5.07062 35.9532 5.07041 36.4006 5.07051C37.9005 5.07083 39.4005 5.07145 40.9004 5.07238C41.8364 5.07377 42.6133 5.4295 43.2436 6.12121C44.512 7.51326 45.7834 8.90253 47.0579 10.289C47.7114 10.9965 48.0108 11.8231 47.9317 12.776C47.7615 14.8266 47.582 16.8765 47.3933 18.9255C47.3758 19.1383 47.3119 19.3447 47.2062 19.5302C47.1005 19.7157 46.9555 19.8758 46.7814 19.9994C46.6072 20.1229 46.4082 20.2069 46.1982 20.2454C45.9882 20.2839 45.7723 20.276 45.5657 20.2223C45.4906 20.2038 45.4101 20.0212 45.4096 19.9145C45.406 19.1075 45.2392 18.3454 44.8354 17.642C43.8876 15.991 41.9848 15.1813 40.042 15.6007C37.9447 16.0534 36.284 17.7935 35.9545 19.9133C35.9103 20.198 35.7828 20.2421 35.5409 20.241C34.0294 20.2343 32.5178 20.2368 31.0062 20.2369C27.7156 20.237 24.425 20.2389 21.1345 20.2426C20.8532 20.2432 20.7284 20.1973 20.7272 19.8668C20.7164 16.823 17.9589 14.7878 15.033 15.6999C12.9591 16.3463 11.6918 17.7701 11.2923 19.9252C11.2509 20.1485 11.1756 20.2443 10.9368 20.2414C9.9951 20.2303 9.05304 20.2468 8.11143 20.2324C7.3407 20.2206 6.85854 19.6717 6.92443 18.9114C7.07096 17.2205 7.22689 15.5303 7.36062 13.8383C7.38343 13.5498 7.48228 13.4691 7.76161 13.4734C8.75955 13.4886 9.75804 13.4913 10.7558 13.473C10.9858 13.4672 11.2107 13.4039 11.4099 13.2889C11.6811 13.1268 11.8565 12.8568 11.7552 12.5205C11.6633 12.2158 11.4226 12.0532 11.1039 12.025C10.9308 12.0097 10.7564 12.0042 10.5825 12.004C8.57191 12.0024 6.56132 12.0019 4.55072 12.0025C3.31821 12.0024 2.08569 12.002 0.853176 12.0015C0.297966 12.0008 -0.00591432 11.7592 -0.0141315 11.318C-0.022858 10.8495 0.348287 10.4924 0.873637 10.491C2.78054 10.4862 4.68746 10.4892 6.59437 10.4892L6.59438 10.4675ZM37.1093 6.33541C36.9856 7.7638 36.8617 9.15026 36.7577 10.5382C36.7529 10.6025 36.9241 10.736 37.0193 10.7419C37.3998 10.7659 37.7827 10.7523 38.1647 10.7522C40.5006 10.7521 42.8366 10.7519 45.1726 10.7516C45.3042 10.7516 45.4359 10.7516 45.6287 10.7516C45.5777 10.6706 45.5227 10.5922 45.4639 10.5167C44.3664 9.31577 43.2729 8.11112 42.166 6.91888C41.9915 6.7302 41.7789 6.58073 41.5423 6.48039C41.3057 6.38004 41.0505 6.33109 40.7935 6.33679C39.759 6.33406 38.7246 6.33562 37.6901 6.33542C37.5074 6.33538 37.3246 6.33541 37.1093 6.33541ZM22.8322 9.73893C22.8934 9.69688 22.9574 9.65907 23.0238 9.62575C23.5497 9.40923 23.86 9.00997 23.9857 8.46745C24.0403 8.20599 24.0812 7.94185 24.1082 7.67612C24.2228 6.74801 23.7856 6.15934 22.8515 6.06136C22.2526 5.99853 21.6444 6.02909 21.0419 5.99192C20.7409 5.97335 20.6412 6.08367 20.6086 6.37564C20.4251 8.01501 20.2333 9.65362 20.0232 11.2898C19.9178 12.1105 19.8543 11.9737 20.7206 11.9895C20.9077 11.9929 20.9888 11.9232 21.0095 11.7322C21.0632 11.2354 21.1232 10.7384 21.2079 10.2463C21.2304 10.1158 21.3514 10.0022 21.4271 9.88093C21.5414 9.97013 21.7043 10.0356 21.7614 10.1526C22.0052 10.652 22.2078 11.1713 22.4484 11.6723C22.5091 11.7987 22.6486 11.9639 22.7629 11.973C23.0793 11.9982 23.4016 11.9504 23.7758 11.9282C23.4488 11.1696 23.143 10.4601 22.8322 9.73893ZM28.7505 6.92737C28.7835 6.72384 28.8009 6.55092 28.8411 6.38348C28.9091 6.10027 28.8298 5.99044 28.5182 5.99646C27.5999 6.01421 26.681 6.01045 25.7626 5.99903C25.5095 5.99588 25.3951 6.05773 25.3616 6.33443C25.1954 7.70756 25.0031 9.07752 24.827 10.4495C24.7639 10.9404 24.7203 11.4337 24.6666 11.9378C24.7322 11.9564 24.7992 11.9697 24.867 11.9775C25.9113 11.9856 26.9556 11.9947 27.9999 11.9898C28.0449 11.9802 28.0867 11.9593 28.1215 11.9292C28.1562 11.8991 28.1829 11.8607 28.1988 11.8176C28.2384 11.5809 28.2406 11.3379 28.262 11.0252H25.8297C25.8905 10.5389 25.9498 10.1264 25.9908 9.71213C26.0127 9.4908 26.1138 9.42173 26.3311 9.42798C26.819 9.442 27.3073 9.44113 27.7958 9.42538C27.8953 9.42209 28.057 9.34197 28.0774 9.26673C28.1429 9.02526 28.1556 8.76949 28.1966 8.459H26.1593C26.2351 7.91992 26.3027 7.43981 26.3748 6.92737L28.7505 6.92737ZM30.6783 8.4699C30.7389 8.02218 30.8051 7.62473 30.8422 7.22458C30.8646 6.98229 30.9752 6.92024 31.2031 6.9252C31.807 6.93831 32.4111 6.93722 33.0154 6.92191C33.1128 6.91948 33.2707 6.83487 33.2921 6.75802C33.3554 6.53042 33.3645 6.28769 33.3944 6.05422C33.349 6.03368 33.3014 6.0183 33.2525 6.00837C32.2301 6.0057 31.2076 6.00938 30.1853 6.00038C29.9624 5.99841 29.9207 6.11261 29.8968 6.29749C29.6853 7.93251 29.4696 9.56699 29.2496 11.2009C29.2165 11.449 29.1713 11.6955 29.1229 11.9983C30.2735 11.9983 31.3723 12.0016 32.4711 11.9913C32.5474 11.9906 32.6763 11.8998 32.689 11.8334C32.7355 11.5905 32.743 11.3402 32.7715 11.0216C32.0645 11.0216 31.4045 10.9984 30.7474 11.0318C30.4369 11.0476 30.3119 10.9961 30.3707 10.6673C30.4279 10.3476 30.4673 10.0239 30.4982 9.70036C30.5179 9.49484 30.6108 9.42532 30.8139 9.42961C31.3132 9.44014 31.8128 9.43901 32.3124 9.42622C32.4065 9.42376 32.5631 9.36067 32.58 9.29633C32.6395 9.02342 32.6845 8.74756 32.7149 8.4699H30.6783ZM16.9357 8.47023C16.9882 8.02932 17.0422 7.64193 17.0775 7.25283C17.0964 7.04464 17.1947 6.9779 17.394 6.98086C17.9168 6.98865 18.4398 6.98855 18.9628 6.98055C19.6163 6.96966 19.5614 7.11663 19.6638 6.35397C19.6976 6.10291 19.6491 5.99558 19.3679 5.9994C18.4035 6.01253 17.4389 6.01233 16.4743 5.9988C16.2102 5.99521 16.1408 6.11036 16.1135 6.34522C15.9207 8.00709 15.7171 9.6677 15.5177 11.3288C15.4344 12.023 15.4348 12.0063 16.1286 11.986C16.396 11.9782 16.4908 11.8928 16.5196 11.6361C16.5896 11.0139 16.6964 10.3959 16.7638 9.77351C16.7926 9.5079 16.8948 9.41951 17.1612 9.43046C17.6484 9.45051 18.1374 9.44491 18.625 9.42805C18.7226 9.42467 18.8816 9.33951 18.9006 9.26399C18.9612 9.02262 18.9693 8.76806 19.0032 8.47023H16.9357L16.9357 8.47023Z" fill="#545AF2"/>
<path d="M40.3347 24.0215C38.1179 24.0292 36.525 22.1556 36.8864 19.9655C37.0339 19.0769 37.4613 18.2585 38.1063 17.6297C38.7513 17.0008 39.5802 16.5944 40.4723 16.4694C43.1348 16.1038 45.1216 18.5573 44.2578 21.144C43.6934 22.834 42.0827 24.0155 40.3347 24.0215ZM40.4723 22.1006C41.5751 22.1074 42.5213 21.1674 42.5202 20.0661C42.5227 19.8422 42.4805 19.6201 42.3962 19.4126C42.3118 19.2052 42.187 19.0167 42.029 18.858C41.871 18.6994 41.683 18.5738 41.476 18.4886C41.2689 18.4034 41.047 18.3602 40.8231 18.3617C39.7215 18.3609 38.7668 19.3075 38.7687 20.3983C38.7674 20.6223 38.8105 20.8444 38.8957 21.0516C38.9808 21.2589 39.1063 21.4471 39.2647 21.6055C39.4232 21.7639 39.6116 21.8892 39.8189 21.9742C40.0262 22.0592 40.2483 22.1022 40.4723 22.1006Z" fill="#545AF2"/>
<path d="M15.6227 24.0202C13.4594 24.0099 11.8824 22.1585 12.2142 20.0185C12.516 18.072 14.1468 16.5606 16.0681 16.4467C18.4595 16.3049 20.2134 18.3419 19.72 20.6879C19.3153 22.6126 17.5731 24.0294 15.6227 24.0202ZM17.8559 20.0751C17.8599 19.8511 17.8193 19.6286 17.7362 19.4205C17.6532 19.2125 17.5295 19.0231 17.3724 18.8634C17.2152 18.7038 17.0278 18.5771 16.821 18.4908C16.6143 18.4045 16.3924 18.3604 16.1684 18.3609C15.0719 18.3511 14.1134 19.2935 14.1045 20.3899C14.1024 20.6168 14.146 20.8418 14.2325 21.0515C14.319 21.2613 14.4467 21.4515 14.608 21.6111C14.7694 21.7706 14.9611 21.8961 15.1718 21.9802C15.3825 22.0643 15.608 22.1053 15.8348 22.1007C16.9238 22.0944 17.8556 21.1605 17.8559 20.0751Z" fill="#545AF2"/>
<path d="M21.3761 8.8612C21.449 8.26774 21.5125 7.71819 21.5893 7.17049C21.598 7.10837 21.6842 7.00574 21.7295 7.00835C22.0599 7.02736 22.3898 7.06298 22.7178 7.10796C22.7745 7.11573 22.8324 7.18509 22.8715 7.2392C23.2387 7.74755 22.803 8.78374 22.1831 8.85643C21.9358 8.88543 21.6823 8.8612 21.3761 8.8612Z" fill="#545AF2"/>
</g>
<defs>
<clipPath id="clip0_551_38">
<rect width="47.9302" height="24" fill="white"/>
</clipPath>
</defs>
</svg>
