<svg width="25" height="25" viewBox="0 0 25 25" fill="none" xmlns="http://www.w3.org/2000/svg">
<g clip-path="url(#clip0_1257_11951)">
<path d="M11.4088 17.4567C11.5473 17.5949 11.735 17.6728 11.9309 17.6728C12.1266 17.6728 12.3142 17.5951 12.4527 17.4567L15.0881 14.8213C15.3765 14.5329 15.3765 14.0656 15.0881 13.7772C14.7999 13.489 14.3324 13.489 14.0442 13.7772L11.9309 15.8905L10.9673 14.9269C10.6789 14.6387 10.2116 14.6387 9.92318 14.9269C9.63498 15.2151 9.63498 15.6826 9.92318 15.971L11.4088 17.4567Z" fill="#545AF2"/>
<path d="M12.5056 21.4769C15.7369 21.4769 18.3656 18.848 18.3656 15.6168C18.3656 12.3855 15.7369 9.75684 12.5056 9.75684C9.27422 9.75684 6.64551 12.3855 6.64551 15.6168C6.64551 18.848 9.27441 21.4769 12.5056 21.4769ZM12.5056 11.2331C14.9228 11.2331 16.8893 13.1996 16.8893 15.6168C16.8893 18.034 14.9228 20.0006 12.5056 20.0006C10.0885 20.0006 8.1218 18.034 8.1218 15.6168C8.1218 13.1996 10.0885 11.2331 12.5056 11.2331Z" fill="#545AF2"/>
<path d="M22.3312 1.57185H20.9848V0.738144C20.9848 0.330544 20.6543 0 20.2467 0C19.8391 0 19.5086 0.330544 19.5086 0.738144V1.57185H18.058V0.738144C18.058 0.330544 17.7275 0 17.3197 0C16.9121 0 16.5815 0.330544 16.5815 0.738144V1.57185H8.43029V0.738144C8.43029 0.330544 8.09975 0 7.69196 0C7.28436 0 6.95381 0.330544 6.95381 0.738144V1.57185H5.50327V0.738144C5.50327 0.330544 5.17273 0 4.76494 0C4.35734 0 4.02679 0.330544 4.02679 0.738144V1.57185H2.68021C1.36395 1.57185 0.292969 2.64282 0.292969 3.95927V22.6128C0.292969 23.929 1.36395 25 2.68021 25H22.3312C23.6477 25 24.7185 23.929 24.7185 22.6128V3.95927C24.7185 2.64282 23.6475 1.57185 22.3312 1.57185ZM23.242 22.6128C23.242 23.115 22.8334 23.5237 22.3312 23.5237H2.68021C2.178 23.5237 1.76926 23.115 1.76926 22.6128V7.70988H23.242V22.6128ZM1.76926 3.95927C1.76926 3.45688 2.178 3.04832 2.68021 3.04832H4.02679V3.88203C4.02679 4.28963 4.35734 4.62017 4.76513 4.62017C5.17273 4.62017 5.50327 4.28963 5.50327 3.88203V3.04832H6.95381V3.88203C6.95381 4.28963 7.28436 4.62017 7.69215 4.62017C8.09975 4.62017 8.43029 4.28963 8.43029 3.88203V3.04832H16.5815V3.88203C16.5815 4.28963 16.9121 4.62017 17.3199 4.62017C17.7275 4.62017 18.058 4.28963 18.058 3.88203V3.04832H19.5086V3.88203C19.5086 4.28963 19.8391 4.62017 20.2467 4.62017C20.6545 4.62017 20.985 4.28963 20.985 3.88203V3.04832H22.3312C22.8334 3.04832 23.2422 3.45688 23.2422 3.95927V6.23341H1.76926V3.95927Z" fill="#545AF2"/>
</g>
<defs>
<clipPath id="clip0_1257_11951">
<rect width="25" height="25" fill="white"/>
</clipPath>
</defs>
</svg>
