<svg width="22" height="16" viewBox="0 0 22 16" fill="none" xmlns="http://www.w3.org/2000/svg">
<path d="M21.5212 0.596903C21.4148 0.556053 21.3125 0.535542 21.2142 0.535542C20.9932 0.535542 20.8092 0.613458 20.6618 0.768861L15.7142 5.70424V3.67859C15.7142 2.70451 15.3684 1.87186 14.6768 1.1802C13.9851 0.488629 13.1525 0.142822 12.1784 0.142822H3.53565C2.56178 0.142822 1.72895 0.488629 1.03725 1.1802C0.345807 1.87186 0 2.70451 0 3.67859V12.3214C0 13.2954 0.345807 14.128 1.03729 14.8197C1.72899 15.5113 2.56182 15.8571 3.53569 15.8571H12.1785C13.1526 15.8571 13.9852 15.5113 14.6769 14.8197C15.3685 14.128 15.7143 13.2955 15.7143 12.3214V10.2834L20.6619 15.231C20.8093 15.3863 20.9933 15.4642 21.2143 15.4642C21.3126 15.4642 21.4149 15.4438 21.5213 15.403C21.8406 15.2638 22.0001 15.0224 22.0001 14.6787V1.32141C22 0.977497 21.8405 0.736095 21.5212 0.596903Z" fill="#999999"/>
</svg>
