<svg width="22" height="22" viewBox="0 0 22 22" fill="none" xmlns="http://www.w3.org/2000/svg">
<path fill-rule="evenodd" clip-rule="evenodd" d="M18.7138 21.4363C19.4656 22.1881 20.6845 22.1881 21.4363 21.4363C22.1879 20.6844 22.1879 19.4655 21.4363 18.7137L13.7227 11L21.4361 3.28636C22.1879 2.53458 22.1879 1.31569 21.4361 0.563883C20.6845 -0.187901 19.4656 -0.187901 18.7138 0.563883L11.0001 8.27767L3.28636 0.563857C2.53455 -0.187952 1.31567 -0.187952 0.563883 0.563857C-0.187927 1.31564 -0.187927 2.53453 0.563883 3.28634L8.27749 11L0.563857 18.7137C-0.187952 19.4655 -0.187952 20.6844 0.563857 21.4363C1.31564 22.1881 2.53453 22.1881 3.28634 21.4363L11.0001 13.7226L18.7138 21.4363Z" fill="#10182B"/>
</svg>
