<svg width="28" height="27" viewBox="0 0 28 27" fill="none" xmlns="http://www.w3.org/2000/svg">
<path d="M3.97701 12.84C4.01724 12.3388 4.24477 11.8711 4.61429 11.5302C4.98381 11.1892 5.46821 10.9999 5.97101 11H18.029C18.5318 10.9999 19.0162 11.1892 19.3857 11.5302C19.7553 11.8711 19.9828 12.3388 20.023 12.84L20.826 22.84C20.8481 23.1152 20.813 23.392 20.7228 23.6529C20.6327 23.9139 20.4895 24.1533 20.3023 24.3562C20.1151 24.5592 19.8879 24.7211 19.635 24.8319C19.3822 24.9427 19.1091 24.9999 18.833 25H5.16701C4.89093 24.9999 4.61786 24.9427 4.36499 24.8319C4.11212 24.7211 3.88492 24.5592 3.69771 24.3562C3.51049 24.1533 3.36731 23.9139 3.27718 23.6529C3.18705 23.392 3.15193 23.1152 3.17401 22.84L3.97701 12.84V12.84Z" stroke="#4F4F4F" stroke-width="1.5" stroke-linecap="round" stroke-linejoin="round"/>
<path d="M16 14V9C16 7.93913 15.5786 6.92172 14.8284 6.17157C14.0783 5.42143 13.0609 5 12 5C10.9391 5 9.92172 5.42143 9.17157 6.17157C8.42143 6.92172 8 7.93913 8 9V14" stroke="#4F4F4F" stroke-width="1.5" stroke-linecap="round" stroke-linejoin="round"/>
<circle cx="21" cy="7" r="7" fill="#EB5757"/>
<path d="M18.561 10.89H23.907V9.845H20.42C21.707 8.668 23.687 7.183 23.687 5.236C23.687 3.795 22.763 2.816 21.135 2.816C19.716 2.816 18.594 3.663 18.55 5.401H19.76C19.793 4.499 20.266 3.883 21.146 3.883C22.081 3.883 22.444 4.455 22.444 5.291C22.444 6.864 20.453 8.316 18.561 9.977V10.89Z" fill="white"/>
</svg>
