<svg width="25" height="25" viewBox="0 0 25 25" fill="none" xmlns="http://www.w3.org/2000/svg">
<g clip-path="url(#clip0_1257_11908)">
<path d="M9.63535 8.3334H1.82285C0.81768 8.3334 0 7.51572 0 6.51035V1.82285C0 0.81768 0.81768 0 1.82285 0H9.63535C10.6407 0 11.4584 0.81768 11.4584 1.82285V6.51035C11.4584 7.51572 10.6407 8.3334 9.63535 8.3334ZM1.82285 1.5625C1.67923 1.5625 1.5625 1.67923 1.5625 1.82285V6.51035C1.5625 6.65417 1.67923 6.7709 1.82285 6.7709H9.63535C9.77917 6.7709 9.8959 6.65417 9.8959 6.51035V1.82285C9.8959 1.67923 9.77917 1.5625 9.63535 1.5625H1.82285Z" fill="#545AF2"/>
<path d="M9.63535 24.9999H1.82285C0.81768 24.9999 0 24.1822 0 23.177V12.2395C0 11.2342 0.81768 10.4165 1.82285 10.4165H9.63535C10.6407 10.4165 11.4584 11.2342 11.4584 12.2395V23.177C11.4584 24.1822 10.6407 24.9999 9.63535 24.9999ZM1.82285 11.979C1.67923 11.979 1.5625 12.0957 1.5625 12.2395V23.177C1.5625 23.3207 1.67923 23.4374 1.82285 23.4374H9.63535C9.77917 23.4374 9.8959 23.3207 9.8959 23.177V12.2395C9.8959 12.0957 9.77917 11.979 9.63535 11.979H1.82285Z" fill="#545AF2"/>
<path d="M23.1775 24.9999H15.365C14.3597 24.9999 13.542 24.1822 13.542 23.177V18.4895C13.542 17.4842 14.3597 16.6665 15.365 16.6665H23.1775C24.1827 16.6665 25.0004 17.4842 25.0004 18.4895V23.177C25.0004 24.1822 24.1827 24.9999 23.1775 24.9999ZM15.365 18.229C15.2212 18.229 15.1045 18.3457 15.1045 18.4895V23.177C15.1045 23.3207 15.2212 23.4374 15.365 23.4374H23.1775C23.3212 23.4374 23.4379 23.3207 23.4379 23.177V18.4895C23.4379 18.3457 23.3212 18.229 23.1775 18.229H15.365Z" fill="#545AF2"/>
<path d="M23.1775 14.5834H15.365C14.3597 14.5834 13.542 13.7657 13.542 12.7604V1.82285C13.542 0.81768 14.3597 0 15.365 0H23.1775C24.1827 0 25.0004 0.81768 25.0004 1.82285V12.7604C25.0004 13.7657 24.1827 14.5834 23.1775 14.5834ZM15.365 1.5625C15.2212 1.5625 15.1045 1.67923 15.1045 1.82285V12.7604C15.1045 12.9042 15.2212 13.0209 15.365 13.0209H23.1775C23.3212 13.0209 23.4379 12.9042 23.4379 12.7604V1.82285C23.4379 1.67923 23.3212 1.5625 23.1775 1.5625H15.365Z" fill="#545AF2"/>
</g>
<defs>
<clipPath id="clip0_1257_11908">
<rect width="25" height="25" fill="white"/>
</clipPath>
</defs>
</svg>
