<svg width="30" height="30" viewBox="0 0 30 30" fill="none" xmlns="http://www.w3.org/2000/svg">
<g clip-path="url(#clip0_1257_11808)">
<path d="M6.87498 0.625H3.12498C1.4025 0.625 0 2.0275 0 3.74998V13.75C0 15.4725 1.4025 16.875 3.12498 16.875H8.74998V1.25746C8.22627 0.86248 7.57875 0.625 6.87498 0.625Z" fill="#999999"/>
<path d="M30 12.1875C30 11.1038 29.38 10.1525 28.4562 9.68748C28.6487 9.30375 28.7499 8.87871 28.7499 8.4375C28.7499 7.35252 28.1287 6.40125 27.2049 5.93625C27.4912 5.36625 27.575 4.71 27.4312 4.05873C27.1512 2.79252 25.96 1.875 24.5987 1.875H13.125C12.305 1.875 11.0175 2.13375 10 2.61375V16.0113L10.15 16.0875L13.75 23.8875V28.125C13.75 28.315 13.8362 28.495 13.9837 28.6137C14.0237 28.6437 14.9512 29.375 16.25 29.375C17.6962 29.375 20 27.0863 20 24.375C20 22.665 19.3875 20.5362 19.005 19.375H26.7262C28.4088 19.375 29.84 18.13 29.9862 16.5412C30.0675 15.65 29.7699 14.7937 29.1862 14.155C29.7025 13.6388 30 12.9387 30 12.1875Z" fill="#999999"/>
</g>
<defs>
<clipPath id="clip0_1257_11808">
<rect width="30" height="30" fill="white"/>
</clipPath>
</defs>
</svg>
