<svg width="25" height="23" viewBox="0 0 25 23" fill="none" xmlns="http://www.w3.org/2000/svg">
<path fill-rule="evenodd" clip-rule="evenodd" d="M25 0.000267029H20.4545V13.6366H25V0.000267029ZM0 12.5003C0 13.7503 1.02273 14.773 2.27273 14.773H9.43182L8.29545 20.0003V20.3412C8.29545 20.7957 8.52273 21.2503 8.75 21.5912L10 22.7275L17.5 15.2275C17.9545 14.8866 18.1818 14.3184 18.1818 13.6366V2.27299C18.1818 1.02299 17.1591 0.000267029 15.9091 0.000267029H5.68182C4.77273 0.000267029 3.97727 0.568449 3.63636 1.3639L0.227274 9.43209C0.113638 9.65936 0.113638 10.0003 0.113638 10.2275V12.5003H0C0 12.3866 0 12.5003 0 12.5003Z" fill="#FF1616"/>
</svg>
