<svg width="38" height="40" viewBox="0 0 38 40" fill="none" xmlns="http://www.w3.org/2000/svg">
<path d="M28.0587 17.3157V9.74579C28.0587 9.52911 27.9586 9.32892 27.817 9.17053L19.3301 0.258484C19.1717 0.0918579 18.9465 0 18.7216 0H5.26575C2.78162 0 0.797363 2.02576 0.797363 4.51019V29.9542C0.797363 32.4387 2.78162 34.4312 5.26575 34.4312H15.8871C17.8961 37.7658 21.5478 40 25.7076 40C32.0269 40 37.1874 34.8645 37.1874 28.537C37.196 23.0096 33.2275 18.3911 28.0587 17.3157ZM19.5553 2.92633L25.2493 8.92029H21.556C20.4556 8.92029 19.5553 8.01178 19.5553 6.91132V2.92633ZM5.26575 32.7637C3.70691 32.7637 2.46484 31.5131 2.46484 29.9542V4.51019C2.46484 2.94281 3.70691 1.66748 5.26575 1.66748H17.8878V6.91132C17.8878 8.93707 19.5303 10.5878 21.556 10.5878H26.3912V17.0987C26.1413 17.0905 25.9411 17.0654 25.7244 17.0654C22.8149 17.0654 20.1388 18.1827 18.1213 19.9335H7.53351C7.07483 19.9335 6.69977 20.3085 6.69977 20.7669C6.69977 21.2256 7.07483 21.6006 7.53351 21.6006H16.5707C15.9786 22.4344 15.4867 23.2681 15.1034 24.1852H7.53351C7.07483 24.1852 6.69977 24.5602 6.69977 25.0189C6.69977 25.4773 7.07483 25.8527 7.53351 25.8527H14.5614C14.353 26.6864 14.2446 27.6117 14.2446 28.537C14.2446 30.0375 14.5364 31.5216 15.0616 32.7722H5.26575V32.7637ZM25.7162 38.3411C20.314 38.3411 15.9203 33.9475 15.9203 28.5452C15.9203 23.143 20.3054 18.7494 25.7162 18.7494C31.1266 18.7494 35.5117 23.143 35.5117 28.5452C35.5117 33.9475 31.1184 38.3411 25.7162 38.3411Z" fill="#545AF2"/>
<path d="M7.53345 17.4238H15.9786C16.4373 17.4238 16.8123 17.0485 16.8123 16.5901C16.8123 16.1314 16.4373 15.7563 15.9786 15.7563H7.53345C7.07477 15.7563 6.69971 16.1314 6.69971 16.5901C6.69971 17.0485 7.07477 17.4238 7.53345 17.4238Z" fill="#545AF2"/>
<path d="M26.3072 22.3927C26.1488 22.2261 25.9321 22.126 25.6986 22.126C25.4652 22.126 25.2485 22.2261 25.0901 22.3927L20.2046 27.6365C19.8878 27.9701 19.9128 28.5035 20.2464 28.8121C20.5799 29.1288 21.1216 29.1038 21.4384 28.7706L24.8899 25.0773V34.181C24.8899 34.6397 25.265 35.0148 25.7237 35.0148C26.182 35.0148 26.5574 34.6397 26.5574 34.181V25.0773L29.9836 28.7706C30.1505 28.9454 30.3672 29.0373 30.5924 29.0373C30.7923 29.0373 30.9925 28.9622 31.1591 28.8121C31.4927 28.4953 31.5177 27.9701 31.201 27.6365L26.3072 22.3927Z" fill="#545AF2"/>
</svg>
