<svg width="40" height="40" viewBox="0 0 40 40" fill="none" xmlns="http://www.w3.org/2000/svg">
<g clip-path="url(#clip0_1257_14645)">
<path d="M29.0587 17.3157V9.74579C29.0587 9.52911 28.9586 9.32892 28.817 9.17053L20.3301 0.258484C20.1717 0.0918579 19.9465 0 19.7216 0H6.26575C3.78162 0 1.79736 2.02576 1.79736 4.51019V29.9542C1.79736 32.4387 3.78162 34.4312 6.26575 34.4312H16.8871C18.8961 37.7658 22.5478 40 26.7076 40C33.0269 40 38.1874 34.8645 38.1874 28.537C38.196 23.0096 34.2275 18.3911 29.0587 17.3157ZM20.5553 2.92633L26.2493 8.92029H22.556C21.4556 8.92029 20.5553 8.01178 20.5553 6.91132V2.92633ZM6.26575 32.7637C4.70691 32.7637 3.46484 31.5131 3.46484 29.9542V4.51019C3.46484 2.94281 4.70691 1.66748 6.26575 1.66748H18.8878V6.91132C18.8878 8.93707 20.5303 10.5878 22.556 10.5878H27.3912V17.0987C27.1413 17.0905 26.9411 17.0654 26.7244 17.0654C23.8149 17.0654 21.1388 18.1827 19.1213 19.9335H8.53351C8.07483 19.9335 7.69977 20.3085 7.69977 20.7669C7.69977 21.2256 8.07483 21.6006 8.53351 21.6006H17.5707C16.9786 22.4344 16.4867 23.2681 16.1034 24.1852H8.53351C8.07483 24.1852 7.69977 24.5602 7.69977 25.0189C7.69977 25.4773 8.07483 25.8527 8.53351 25.8527H15.5614C15.353 26.6864 15.2446 27.6117 15.2446 28.537C15.2446 30.0375 15.5364 31.5216 16.0616 32.7722H6.26575V32.7637ZM26.7162 38.3411C21.314 38.3411 16.9203 33.9475 16.9203 28.5452C16.9203 23.143 21.3054 18.7494 26.7162 18.7494C32.1266 18.7494 36.5117 23.143 36.5117 28.5452C36.5117 33.9475 32.1184 38.3411 26.7162 38.3411Z" fill="#545AF2"/>
<path d="M8.53345 17.4238H16.9786C17.4373 17.4238 17.8123 17.0485 17.8123 16.5901C17.8123 16.1314 17.4373 15.7563 16.9786 15.7563H8.53345C8.07477 15.7563 7.69971 16.1314 7.69971 16.5901C7.69971 17.0485 8.07477 17.4238 8.53345 17.4238Z" fill="#545AF2"/>
<path d="M27.3072 22.3927C27.1488 22.2261 26.9321 22.126 26.6986 22.126C26.4652 22.126 26.2485 22.2261 26.0901 22.3927L21.2046 27.6365C20.8878 27.9701 20.9128 28.5035 21.2464 28.8121C21.5799 29.1288 22.1216 29.1038 22.4384 28.7706L25.8899 25.0773V34.181C25.8899 34.6397 26.265 35.0148 26.7237 35.0148C27.182 35.0148 27.5574 34.6397 27.5574 34.181V25.0773L30.9836 28.7706C31.1505 28.9454 31.3672 29.0373 31.5924 29.0373C31.7923 29.0373 31.9925 28.9622 32.1591 28.8121C32.4927 28.4953 32.5177 27.9701 32.201 27.6365L27.3072 22.3927Z" fill="#545AF2"/>
</g>
<defs>
<clipPath id="clip0_1257_14645">
<rect width="40" height="40" fill="white"/>
</clipPath>
</defs>
</svg>
