<svg width="25" height="25" viewBox="0 0 25 25" fill="none" xmlns="http://www.w3.org/2000/svg">
<g clip-path="url(#clip0_1257_11918)">
<path d="M18.1522 13.8309C19.4934 12.973 20.3819 11.4885 20.3819 9.80372C20.3819 7.15492 18.1858 5 15.4864 5C13.6795 5 12.0982 5.9657 11.25 7.39866C10.4018 5.9657 8.82065 5 7.01374 5C4.31437 5 2.11813 7.15492 2.11813 9.80372C2.11813 11.4885 3.00665 12.973 4.34784 13.8309C1.79884 14.8626 0 17.327 0 20.1963V22.621C0 23.9329 1.08765 25 2.42437 25H20.0756C21.4125 25 22.5 23.9329 22.5 22.6212V20.1963C22.5 17.327 20.7012 14.8626 18.1522 13.8309ZM15.4864 6.29366C17.4588 6.29366 19.0635 7.86828 19.0635 9.80372C19.0635 11.7393 17.4588 13.3139 15.4864 13.3139C13.5139 13.3139 11.9092 11.7393 11.9092 9.80372C11.9092 7.86828 13.5139 6.29366 15.4864 6.29366ZM11.2476 14.7132C10.769 14.3565 10.2427 14.0588 9.67964 13.8309C10.3235 13.4191 10.8631 12.8627 11.25 12.2091C11.6368 12.8623 12.1759 13.4184 12.8193 13.8302C12.2616 14.0553 11.7332 14.3514 11.2476 14.7132ZM3.43649 9.80372C3.43649 7.86828 5.04118 6.29366 7.01374 6.29366C8.98613 6.29366 10.5908 7.86828 10.5908 9.80372C10.5908 11.7393 8.98613 13.3139 7.01374 13.3139C5.04118 13.3139 3.43649 11.7393 3.43649 9.80372ZM10.8969 23.7063H2.42437C1.81446 23.7063 1.31836 23.2195 1.31836 22.6212V20.1963C1.31836 17.1146 3.87337 14.6076 7.01374 14.6076C10.1541 14.6076 12.7091 17.1147 12.7091 20.1963V22.6212C12.7091 23.2195 12.2128 23.7063 11.6031 23.7063H10.8969ZM21.1816 22.6212C21.1816 23.2195 20.6855 23.7063 20.0756 23.7063H13.7593C13.9303 23.3807 14.0275 23.012 14.0275 22.6212V20.1963C14.0275 18.4347 13.3491 16.8257 12.2359 15.6072C13.1851 14.959 14.3166 14.6076 15.4864 14.6076C18.6268 14.6076 21.1816 17.1146 21.1816 20.1963V22.6212Z" fill="#999999"/>
<path fill-rule="evenodd" clip-rule="evenodd" d="M24.5443 4.30851C24.811 4.30851 25.0272 4.09233 25.0272 3.82567C25.0271 3.55905 24.811 3.34287 24.5443 3.34283L21.8083 3.34283L21.8083 0.606873C21.8083 0.340214 21.5921 0.124047 21.3255 0.124047C21.0589 0.124006 20.8427 0.340186 20.8427 0.606845L20.8427 3.34287L18.1067 3.34285C17.84 3.34285 17.6238 3.55902 17.6238 3.82568C17.6238 4.09234 17.84 4.3085 18.1067 4.3085L20.8426 4.30851L20.8427 7.04451C20.8427 7.31118 21.0588 7.52736 21.3255 7.52736C21.5922 7.52736 21.8083 7.31119 21.8083 7.04453L21.8083 4.30851L24.5443 4.30851Z" fill="#999999"/>
</g>
<defs>
<clipPath id="clip0_1257_11918">
<rect width="25" height="25" fill="white"/>
</clipPath>
</defs>
</svg>
