<svg width="33" height="33" viewBox="0 0 33 33" fill="none" xmlns="http://www.w3.org/2000/svg">
<g clip-path="url(#clip0_1257_21768)">
<path d="M24.6645 27.9455L25.3697 28.0696C25.9204 28.1668 26.4878 28.0565 26.9622 27.7604L29.6815 26.062C30.7702 25.382 31.5192 24.2719 31.742 23.0078L32.7 17.5746C32.7647 17.2085 32.5203 16.8596 32.1542 16.7951L21.4404 14.9058C21.0743 14.8414 20.7253 15.0856 20.6609 15.4517L19.7026 20.8851C19.4798 22.149 19.8038 23.4484 20.5944 24.4597L22.569 26.9857C22.9135 27.4263 23.4087 27.7239 23.9596 27.8211L24.6645 27.9455Z" fill="#E1EBEF"/>
<path d="M23.5365 23.5084C25.8717 22.46 27.1479 18.5885 27.1479 18.5885C27.1479 18.5885 23.3378 17.1388 21.052 18.2912C20.6014 18.5183 20.2627 18.8154 20.0092 19.1449L19.7023 20.8849C19.5943 21.498 19.6159 22.1189 19.7559 22.7118C20.4357 23.3027 21.8799 24.2521 23.5365 23.5084Z" fill="#C4D3D6"/>
<path d="M30.8047 16.5581L29.897 21.7068C29.674 22.9707 28.9252 24.0807 27.8366 24.7608L25.1169 26.4592C24.6426 26.7555 24.0754 26.8656 23.5245 26.7686L22.8195 26.6443C22.8195 26.6443 22.358 26.5629 22.2125 26.5373L22.5632 26.9859C22.9079 27.4265 23.4031 27.7241 23.9538 27.8213L25.3642 28.07C25.9148 28.167 26.482 28.0569 26.9564 27.7606L29.676 26.0622C30.7646 25.3821 31.5137 24.2721 31.7365 23.0079L32.6945 17.5748C32.7589 17.2087 32.5147 16.8597 32.1486 16.7953L30.8047 16.5581Z" fill="#C4D3D6"/>
<path d="M27.522 11.7258L26.0169 11.4604L25.2898 15.5852L28.2994 16.1159L29.0268 11.9912L27.522 11.7258Z" fill="#E1EBEF"/>
<path d="M28.135 11.834L27.6534 14.5649C27.5993 14.8728 27.3054 15.0783 26.9978 15.0242L26.0501 14.857L25.437 14.749L25.2898 15.5851L28.2994 16.1158L29.0268 11.9913L28.135 11.834Z" fill="#C4D3D6"/>
<path d="M28.9651 3.53246L27.46 3.26709L26.0154 11.4604L27.5204 11.7258L29.0253 11.9912L30.4699 3.79782L28.9651 3.53246Z" fill="#FFD432"/>
<path d="M27.46 3.26709L27.3127 4.10322L28.8734 4.3784C29.1811 4.43253 29.3868 4.72635 29.3324 5.03401L28.3792 10.4405C28.3248 10.7484 28.0313 10.9539 27.7234 10.8997L26.1629 10.6246L26.0154 11.4604L29.0253 11.9912L30.4699 3.79782L27.46 3.26709Z" fill="#F4AC03"/>
<path d="M32.8006 2.65642L32.9491 1.81425C33.0136 1.44818 32.7694 1.09922 32.4033 1.03477L26.5942 0.0103172C26.2284 -0.054136 25.8794 0.190081 25.8147 0.556154L25.6662 1.39833L25.5179 2.2405C25.4532 2.60657 25.6977 2.95552 26.0637 3.01998L31.8726 4.04443C32.2386 4.10888 32.5876 3.86466 32.6523 3.49859L32.8006 2.65642Z" fill="#64AEF7"/>
<path d="M32.0073 0.964844L31.7616 2.35814C31.7075 2.66605 31.4137 2.8715 31.106 2.81737L25.588 1.84428L25.518 2.24056C25.4535 2.60664 25.698 2.95559 26.0638 3.02004L31.8729 4.04449C32.239 4.10895 32.5879 3.86473 32.6524 3.49866L32.9495 1.81406C33.0139 1.44824 32.7697 1.09904 32.4036 1.03458L32.0073 0.964844Z" fill="#0A86E3"/>
<path d="M13.6828 19.8104C13.6828 19.8104 11.9702 21.8346 9.88631 20.8993C8.21028 20.1467 7.13698 17.7877 6.76436 16.843C6.67826 16.625 6.79483 16.3803 7.01815 16.3095C7.98671 16.0034 10.4946 15.3498 12.1351 16.1766C14.1747 17.2048 13.6828 19.8104 13.6828 19.8104Z" fill="#6EC030"/>
<path d="M12.1439 16.1769C11.862 16.0347 11.5543 15.9365 11.2333 15.8726C12.5405 17.0566 12.1593 19.0814 12.1593 19.0814C12.1593 19.0814 10.8295 20.6527 9.08771 20.3863C9.33897 20.5943 9.60812 20.7705 9.89539 20.8994C11.979 21.8347 13.6918 19.8105 13.6918 19.8105C13.6918 19.8105 14.1835 17.2049 12.1439 16.1769Z" fill="#378900"/>
<path d="M19.34 20.8196C19.34 20.8196 21.0528 22.8439 23.1365 21.9086C24.8125 21.156 25.886 18.7969 26.2587 17.8523C26.3445 17.6343 26.2282 17.3895 26.0046 17.3188C25.0363 17.0126 22.5284 16.3591 20.8879 17.1859C18.8481 18.2141 19.34 20.8196 19.34 20.8196Z" fill="#6EC030"/>
<path d="M25.0207 17.0508C24.7078 17.8766 23.6111 20.4537 21.8446 21.2468C21.1623 21.5529 20.5198 21.5419 19.9642 21.3885C20.645 21.9047 21.8169 22.5019 23.1382 21.9087C24.8143 21.1561 25.8876 18.7971 26.2602 17.8524C26.3463 17.6341 26.2297 17.3897 26.0061 17.3189C25.7624 17.2419 25.421 17.1429 25.0207 17.0508Z" fill="#378900"/>
<path d="M16.5116 15.6392C16.5116 15.6392 19.0686 15.0299 19.0686 12.7458C19.0686 10.9623 17.5028 8.87965 16.8218 8.05837C16.6606 7.86401 16.3623 7.86401 16.2012 8.05837C15.5201 8.87965 13.9546 10.962 13.9546 12.7458C13.9546 15.0299 16.5116 15.6392 16.5116 15.6392Z" fill="#6EC030"/>
<path d="M16.5116 15.6392C16.5116 15.6392 19.0686 15.0299 19.0686 12.7458C19.0686 10.9623 17.5028 8.87965 16.8218 8.05837C16.6606 7.86401 16.3623 7.86401 16.2012 8.05837C15.5201 8.87965 13.9546 10.962 13.9546 12.7458C13.9546 15.0299 16.5116 15.6392 16.5116 15.6392Z" fill="#6EC030"/>
<path d="M19.0663 12.7457C19.0663 10.9619 17.5005 8.87952 16.8195 8.058C16.779 8.00941 16.7299 7.9729 16.6765 7.94873C17.2556 8.88255 17.7878 10.0236 17.7878 11.0634C17.7878 12.2699 17.0743 13.0091 16.4011 13.4381C15.6868 13.8933 14.7668 13.8897 14.0536 13.433C14.0473 13.429 14.0412 13.4252 14.0352 13.4212V13.4215C14.3892 14.8261 15.7983 15.4114 16.3165 15.5821C16.3175 15.5824 16.3185 15.5829 16.3195 15.5832C16.3374 15.5892 16.3542 15.5945 16.3698 15.5993C16.3726 15.6003 16.3754 15.601 16.3782 15.6018C16.3923 15.6063 16.4053 15.6103 16.4174 15.6139C16.4207 15.6149 16.4237 15.6159 16.4267 15.6166C16.4373 15.6197 16.4474 15.6227 16.4562 15.6252C16.4595 15.626 16.4625 15.627 16.4658 15.6277C16.4728 15.6297 16.4799 15.6317 16.4852 15.633C16.4887 15.634 16.4912 15.6348 16.494 15.6353C16.4972 15.636 16.501 15.6373 16.503 15.6378C16.5066 15.6385 16.5093 15.6393 16.5093 15.6393C16.5093 15.6393 19.0663 15.0298 19.0663 12.7457Z" fill="#378900"/>
<path d="M22.8897 19.1223C22.7694 18.8711 22.4682 18.7646 22.2167 18.8847L19.1257 20.3621C18.2322 20.7007 17.5247 21.2533 17.0174 21.7589V12.9477C17.0174 12.669 16.7916 12.4429 16.5129 12.4429C16.2342 12.4429 16.0081 12.669 16.0081 12.9477V20.7495C15.5007 20.244 14.7935 19.6913 13.9 19.3527L10.809 17.8753C10.5575 17.7552 10.2561 17.8617 10.136 18.1132C10.0159 18.3645 10.1222 18.6659 10.3737 18.786L13.4511 20.2568C13.4705 20.2671 13.4904 20.2767 13.5115 20.2845C14.8794 20.7903 15.7598 21.9542 16.0081 22.3165V26.1364C16.0081 26.4151 16.2342 26.641 16.5129 26.641C16.7916 26.641 17.0174 26.4151 17.0174 26.1364V23.3259C17.2659 22.9636 18.1463 21.7997 19.514 21.2939C19.5351 21.286 19.5553 21.2765 19.5746 21.2664L22.652 19.7956C22.9033 19.6752 23.0098 19.3739 22.8897 19.1223Z" fill="#378900"/>
<path d="M27.4139 32.9999H32.2859C32.7396 32.9999 33.0689 32.5585 32.9287 32.127C32.5611 30.9933 31.4964 30.1737 30.24 30.1737C29.8994 30.1737 29.5728 30.2339 29.2702 30.3444C28.3883 28.9484 26.8323 28.0204 25.0586 28.0204C24.7907 28.0204 24.5276 28.0423 24.2711 28.083C24.0135 26.5951 22.7174 25.4634 21.1559 25.4634C20.0083 25.4634 19.0035 26.0747 18.4491 26.9894C17.9695 26.4652 17.2797 26.1364 16.513 26.1364C15.7461 26.1364 15.0565 26.4652 14.5767 26.9894C14.0223 26.0747 13.0174 25.4634 11.8699 25.4634C10.3084 25.4634 9.01229 26.5951 8.75473 28.083C8.49817 28.0423 8.23507 28.0204 7.96719 28.0204C6.19347 28.0204 4.63778 28.9484 3.75558 30.3444C3.45321 30.2339 3.12641 30.1737 2.78576 30.1737C1.52968 30.1737 0.464696 30.9933 0.097112 32.127C-0.0428721 32.5585 0.286443 32.9999 0.739881 32.9999H27.4139Z" fill="#A77554"/>
<path d="M30.2409 30.1737C29.9002 30.1737 29.5737 30.2342 29.2711 30.3444C28.3891 28.9484 26.8332 28.0204 25.0597 28.0204C24.7916 28.0204 24.5287 28.0423 24.2722 28.083C24.0144 26.5953 22.7182 25.4634 21.1568 25.4634C20.0132 25.4634 19.0119 26.0706 18.4565 26.9798C19.9787 27.1618 21.2897 28.0307 22.0712 29.2679C22.3736 29.1573 22.7004 29.0969 23.041 29.0969C24.0959 29.0969 25.0156 29.675 25.5013 30.5315C25.8535 31.1529 25.3878 31.923 24.6735 31.923H0.173499C0.145301 31.991 0.119872 32.0605 0.0969613 32.131C-0.0420157 32.561 0.289062 32.9999 0.740989 32.9999H32.2868C32.7405 32.9999 33.0698 32.5583 32.9295 32.127C32.5619 30.9933 31.4972 30.1737 30.2409 30.1737Z" fill="#915431"/>
<path d="M13.3524 30.0727C13.0737 30.0727 12.8479 29.8468 12.8479 29.5681C12.8479 29.1784 12.5309 28.8614 12.1412 28.8614C11.7517 28.8614 11.4347 29.1784 11.4347 29.5681C11.4347 29.8468 11.2089 30.0727 10.9302 30.0727C10.6512 30.0727 10.4254 29.8468 10.4254 29.5681C10.4254 28.622 11.1953 27.8521 12.1412 27.8521C13.0873 27.8521 13.8572 28.622 13.8572 29.5681C13.8572 29.8468 13.6311 30.0727 13.3524 30.0727Z" fill="#915431"/>
<path d="M21.1596 31.3515C20.8809 31.3515 20.655 31.1256 20.655 30.8469C20.655 30.4572 20.338 30.1402 19.9483 30.1402C19.5588 30.1402 19.2418 30.4572 19.2418 30.8469C19.2418 31.1256 19.016 31.3515 18.7373 31.3515C18.4583 31.3515 18.2325 31.1256 18.2325 30.8469C18.2325 29.9008 19.0021 29.1309 19.9483 29.1309C20.8944 29.1309 21.6644 29.9008 21.6644 30.8469C21.6644 31.1256 21.4383 31.3515 21.1596 31.3515Z" fill="#915431"/>
<path d="M27.346 31.2503C27.346 31.4733 27.1652 31.6541 26.9422 31.6541C26.7191 31.6541 26.5383 31.4733 26.5383 31.2503C26.5383 31.0275 26.7191 30.8467 26.9422 30.8467C27.1652 30.8467 27.346 31.0275 27.346 31.2503Z" fill="#A77554"/>
<path d="M7.70361 30.1739C7.70361 30.3969 7.52284 30.5777 7.29977 30.5777C7.07695 30.5777 6.89618 30.3969 6.89618 30.1739C6.89618 29.9508 7.07695 29.77 7.29977 29.77C7.52284 29.77 7.70361 29.9508 7.70361 30.1739Z" fill="#915431"/>
</g>
<defs>
<clipPath id="clip0_1257_21768">
<rect width="33" height="33" fill="white"/>
</clipPath>
</defs>
</svg>
