<svg width="55" height="55" viewBox="0 0 55 55" fill="none" xmlns="http://www.w3.org/2000/svg">
<circle cx="27.5" cy="27.5" r="26.5" stroke="#545AF2" stroke-width="2"/>
<g clip-path="url(#clip0_1257_21766)">
<path d="M35.6645 38.9455L36.3697 39.0696C36.9204 39.1668 37.4878 39.0565 37.9622 38.7604L40.6815 37.062C41.7702 36.382 42.5192 35.2719 42.742 34.0078L43.7 28.5746C43.7647 28.2085 43.5203 27.8596 43.1542 27.7951L32.4404 25.9058C32.0743 25.8414 31.7253 26.0856 31.6609 26.4517L30.7026 31.8851C30.4798 33.149 30.8038 34.4484 31.5944 35.4597L33.569 37.9857C33.9135 38.4263 34.4087 38.7239 34.9596 38.8211L35.6645 38.9455Z" fill="#E1EBEF"/>
<path d="M34.5365 34.5084C36.8717 33.46 38.1479 29.5885 38.1479 29.5885C38.1479 29.5885 34.3378 28.1388 32.052 29.2912C31.6014 29.5183 31.2627 29.8154 31.0092 30.1449L30.7023 31.8849C30.5943 32.498 30.6159 33.1189 30.7559 33.7118C31.4357 34.3027 32.8799 35.2521 34.5365 34.5084Z" fill="#C4D3D6"/>
<path d="M41.8047 27.5581L40.897 32.7068C40.674 33.9707 39.9252 35.0807 38.8366 35.7608L36.1169 37.4592C35.6426 37.7555 35.0754 37.8656 34.5245 37.7686L33.8195 37.6443C33.8195 37.6443 33.358 37.5629 33.2125 37.5373L33.5632 37.9859C33.9079 38.4265 34.4031 38.7241 34.9538 38.8213L36.3642 39.07C36.9148 39.167 37.482 39.0569 37.9564 38.7606L40.676 37.0622C41.7646 36.3821 42.5137 35.2721 42.7365 34.0079L43.6945 28.5748C43.7589 28.2087 43.5147 27.8597 43.1486 27.7953L41.8047 27.5581Z" fill="#C4D3D6"/>
<path d="M38.522 22.7258L37.0169 22.4604L36.2898 26.5852L39.2994 27.1159L40.0268 22.9912L38.522 22.7258Z" fill="#E1EBEF"/>
<path d="M39.135 22.834L38.6534 25.5649C38.5993 25.8728 38.3054 26.0783 37.9978 26.0242L37.0501 25.857L36.437 25.749L36.2898 26.5851L39.2994 27.1158L40.0268 22.9913L39.135 22.834Z" fill="#C4D3D6"/>
<path d="M39.9651 14.5325L38.46 14.2671L37.0154 22.4604L38.5204 22.7258L40.0253 22.9912L41.4699 14.7978L39.9651 14.5325Z" fill="#FFD432"/>
<path d="M38.46 14.2671L38.3127 15.1032L39.8734 15.3784C40.1811 15.4325 40.3868 15.7263 40.3324 16.034L39.3792 21.4405C39.3248 21.7484 39.0313 21.9539 38.7234 21.8997L37.1629 21.6246L37.0154 22.4604L40.0253 22.9912L41.4699 14.7978L38.46 14.2671Z" fill="#F4AC03"/>
<path d="M43.8006 13.6564L43.9491 12.8142C44.0136 12.4482 43.7694 12.0992 43.4033 12.0348L37.5942 11.0103C37.2284 10.9459 36.8794 11.1901 36.8147 11.5562L36.6662 12.3983L36.5179 13.2405C36.4532 13.6066 36.6977 13.9555 37.0637 14.02L42.8726 15.0444C43.2386 15.1089 43.5876 14.8647 43.6523 14.4986L43.8006 13.6564Z" fill="#64AEF7"/>
<path d="M43.0073 11.9648L42.7616 13.3581C42.7075 13.6661 42.4137 13.8715 42.106 13.8174L36.588 12.8443L36.518 13.2406C36.4535 13.6066 36.698 13.9556 37.0638 14.02L42.8729 15.0445C43.239 15.1089 43.5879 14.8647 43.6524 14.4987L43.9495 12.8141C44.0139 12.4482 43.7697 12.099 43.4036 12.0346L43.0073 11.9648Z" fill="#0A86E3"/>
<path d="M24.6828 30.8104C24.6828 30.8104 22.9702 32.8346 20.8863 31.8993C19.2103 31.1467 18.137 28.7877 17.7644 27.843C17.6783 27.625 17.7948 27.3803 18.0181 27.3095C18.9867 27.0034 21.4946 26.3498 23.1351 27.1766C25.1747 28.2048 24.6828 30.8104 24.6828 30.8104Z" fill="#6EC030"/>
<path d="M23.1439 27.1769C22.862 27.0347 22.5543 26.9365 22.2333 26.8726C23.5405 28.0566 23.1593 30.0814 23.1593 30.0814C23.1593 30.0814 21.8295 31.6527 20.0877 31.3863C20.339 31.5943 20.6081 31.7705 20.8954 31.8994C22.979 32.8347 24.6918 30.8105 24.6918 30.8105C24.6918 30.8105 25.1835 28.2049 23.1439 27.1769Z" fill="#378900"/>
<path d="M30.34 31.8196C30.34 31.8196 32.0528 33.8439 34.1365 32.9086C35.8125 32.156 36.886 29.7969 37.2587 28.8523C37.3445 28.6343 37.2282 28.3895 37.0046 28.3188C36.0363 28.0126 33.5284 27.3591 31.8879 28.1859C29.8481 29.2141 30.34 31.8196 30.34 31.8196Z" fill="#6EC030"/>
<path d="M36.0207 28.0508C35.7078 28.8766 34.6111 31.4537 32.8446 32.2468C32.1623 32.5529 31.5198 32.5419 30.9642 32.3885C31.645 32.9047 32.8169 33.5019 34.1382 32.9087C35.8143 32.1561 36.8876 29.7971 37.2602 28.8524C37.3463 28.6341 37.2297 28.3897 37.0061 28.3189C36.7624 28.2419 36.421 28.1429 36.0207 28.0508Z" fill="#378900"/>
<path d="M27.5116 26.6392C27.5116 26.6392 30.0686 26.0299 30.0686 23.7458C30.0686 21.9623 28.5028 19.8796 27.8218 19.0584C27.6606 18.864 27.3623 18.864 27.2012 19.0584C26.5201 19.8796 24.9546 21.962 24.9546 23.7458C24.9546 26.0299 27.5116 26.6392 27.5116 26.6392Z" fill="#6EC030"/>
<path d="M27.5116 26.6392C27.5116 26.6392 30.0686 26.0299 30.0686 23.7458C30.0686 21.9623 28.5028 19.8796 27.8218 19.0584C27.6606 18.864 27.3623 18.864 27.2012 19.0584C26.5201 19.8796 24.9546 21.962 24.9546 23.7458C24.9546 26.0299 27.5116 26.6392 27.5116 26.6392Z" fill="#6EC030"/>
<path d="M30.0663 23.7457C30.0663 21.9619 28.5005 19.8795 27.8195 19.058C27.779 19.0094 27.7299 18.9729 27.6765 18.9487C28.2556 19.8825 28.7878 21.0236 28.7878 22.0634C28.7878 23.2699 28.0743 24.0091 27.4011 24.4381C26.6868 24.8933 25.7668 24.8897 25.0536 24.433C25.0473 24.429 25.0412 24.4252 25.0352 24.4212V24.4215C25.3892 25.8261 26.7983 26.4114 27.3165 26.5821C27.3175 26.5824 27.3185 26.5829 27.3195 26.5832C27.3374 26.5892 27.3542 26.5945 27.3698 26.5993C27.3726 26.6003 27.3754 26.601 27.3782 26.6018C27.3923 26.6063 27.4053 26.6103 27.4174 26.6139C27.4207 26.6149 27.4237 26.6159 27.4267 26.6166C27.4373 26.6197 27.4474 26.6227 27.4562 26.6252C27.4595 26.626 27.4625 26.627 27.4658 26.6277C27.4728 26.6297 27.4799 26.6317 27.4852 26.633C27.4887 26.634 27.4912 26.6348 27.494 26.6353C27.4972 26.636 27.501 26.6373 27.503 26.6378C27.5066 26.6385 27.5093 26.6393 27.5093 26.6393C27.5093 26.6393 30.0663 26.0298 30.0663 23.7457Z" fill="#378900"/>
<path d="M33.8897 30.1223C33.7694 29.8711 33.4682 29.7646 33.2167 29.8847L30.1257 31.3621C29.2322 31.7007 28.5247 32.2533 28.0174 32.7589V23.9477C28.0174 23.669 27.7916 23.4429 27.5129 23.4429C27.2342 23.4429 27.0081 23.669 27.0081 23.9477V31.7495C26.5007 31.244 25.7935 30.6913 24.9 30.3527L21.809 28.8753C21.5575 28.7552 21.2561 28.8617 21.136 29.1132C21.0159 29.3645 21.1222 29.6659 21.3737 29.786L24.4511 31.2568C24.4705 31.2671 24.4904 31.2767 24.5115 31.2845C25.8794 31.7903 26.7598 32.9542 27.0081 33.3165V37.1364C27.0081 37.4151 27.2342 37.641 27.5129 37.641C27.7916 37.641 28.0174 37.4151 28.0174 37.1364V34.3259C28.2659 33.9636 29.1463 32.7997 30.514 32.2939C30.5351 32.286 30.5553 32.2765 30.5746 32.2664L33.652 30.7956C33.9033 30.6752 34.0098 30.3739 33.8897 30.1223Z" fill="#378900"/>
<path d="M38.4139 43.9999H43.2859C43.7396 43.9999 44.0689 43.5585 43.9287 43.127C43.5611 41.9933 42.4964 41.1737 41.24 41.1737C40.8994 41.1737 40.5728 41.2339 40.2702 41.3444C39.3883 39.9484 37.8323 39.0204 36.0586 39.0204C35.7907 39.0204 35.5276 39.0423 35.2711 39.083C35.0135 37.5951 33.7174 36.4634 32.1559 36.4634C31.0083 36.4634 30.0035 37.0747 29.4491 37.9894C28.9695 37.4652 28.2797 37.1364 27.513 37.1364C26.7461 37.1364 26.0565 37.4652 25.5767 37.9894C25.0223 37.0747 24.0174 36.4634 22.8699 36.4634C21.3084 36.4634 20.0123 37.5951 19.7547 39.083C19.4982 39.0423 19.2351 39.0204 18.9672 39.0204C17.1935 39.0204 15.6378 39.9484 14.7556 41.3444C14.4532 41.2339 14.1264 41.1737 13.7858 41.1737C12.5297 41.1737 11.4647 41.9933 11.0971 43.127C10.9571 43.5585 11.2864 43.9999 11.7399 43.9999H38.4139Z" fill="#A77554"/>
<path d="M41.2409 41.1737C40.9002 41.1737 40.5737 41.2342 40.2711 41.3444C39.3891 39.9484 37.8332 39.0204 36.0597 39.0204C35.7916 39.0204 35.5287 39.0423 35.2722 39.083C35.0144 37.5953 33.7182 36.4634 32.1568 36.4634C31.0132 36.4634 30.0119 37.0706 29.4565 37.9798C30.9787 38.1618 32.2897 39.0307 33.0712 40.2679C33.3736 40.1573 33.7004 40.0969 34.041 40.0969C35.0959 40.0969 36.0156 40.675 36.5013 41.5315C36.8535 42.1529 36.3878 42.923 35.6735 42.923H11.1735C11.1453 42.991 11.1199 43.0605 11.097 43.131C10.958 43.561 11.2891 43.9999 11.741 43.9999H43.2868C43.7405 43.9999 44.0698 43.5583 43.9295 43.127C43.5619 41.9933 42.4972 41.1737 41.2409 41.1737Z" fill="#915431"/>
<path d="M24.3524 41.0727C24.0737 41.0727 23.8479 40.8468 23.8479 40.5681C23.8479 40.1784 23.5309 39.8614 23.1412 39.8614C22.7517 39.8614 22.4347 40.1784 22.4347 40.5681C22.4347 40.8468 22.2089 41.0727 21.9302 41.0727C21.6512 41.0727 21.4254 40.8468 21.4254 40.5681C21.4254 39.622 22.1953 38.8521 23.1412 38.8521C24.0873 38.8521 24.8572 39.622 24.8572 40.5681C24.8572 40.8468 24.6311 41.0727 24.3524 41.0727Z" fill="#915431"/>
<path d="M32.1596 42.3515C31.8809 42.3515 31.655 42.1256 31.655 41.8469C31.655 41.4572 31.338 41.1402 30.9483 41.1402C30.5588 41.1402 30.2418 41.4572 30.2418 41.8469C30.2418 42.1256 30.016 42.3515 29.7373 42.3515C29.4583 42.3515 29.2325 42.1256 29.2325 41.8469C29.2325 40.9008 30.0021 40.1309 30.9483 40.1309C31.8944 40.1309 32.6644 40.9008 32.6644 41.8469C32.6644 42.1256 32.4383 42.3515 32.1596 42.3515Z" fill="#915431"/>
<path d="M38.346 42.2503C38.346 42.4733 38.1652 42.6541 37.9422 42.6541C37.7191 42.6541 37.5383 42.4733 37.5383 42.2503C37.5383 42.0275 37.7191 41.8467 37.9422 41.8467C38.1652 41.8467 38.346 42.0275 38.346 42.2503Z" fill="#A77554"/>
<path d="M18.7036 41.1739C18.7036 41.3969 18.5228 41.5777 18.2998 41.5777C18.077 41.5777 17.8962 41.3969 17.8962 41.1739C17.8962 40.9508 18.077 40.77 18.2998 40.77C18.5228 40.77 18.7036 40.9508 18.7036 41.1739Z" fill="#915431"/>
</g>
<defs>
<clipPath id="clip0_1257_21766">
<rect width="33" height="33" fill="white" transform="translate(11.0001 11)"/>
</clipPath>
</defs>
</svg>
