<svg
  width="25"
  height="25"
  viewBox="0 0 25 25"
  fill="none"
  xmlns="http://www.w3.org/2000/svg"
>
<path
    d="M21.563 17.6368C22.563 16.8466 23.2059 15.6235 23.2059 14.253C23.2059 11.8759 21.272 9.94198 18.8949 9.94198C16.5178 9.94198 14.5839 11.8759 14.5839 14.253C14.5839 15.6234 15.2268 16.8466 16.2267 17.6368C15.0144 18.1596 14.0264 19.0271 13.4273 20.0938C12.7844 18.5615 11.4618 17.317 9.78339 16.6456C10.9991 15.7611 11.791 14.3278 11.791 12.7127C11.791 10.0322 9.6103 7.85156 6.92989 7.85156C4.24949 7.85156 2.06878 10.0322 2.06878 12.7127C2.06878 14.3278 2.86068 15.7611 4.0764 16.6456C1.67795 17.605 0.00585938 19.7349 0.00585938 22.2022V25.0004H24.9938V22.4772C24.9937 20.3528 23.5924 18.512 21.563 17.6368ZM3.53925 12.7127C3.53925 10.8431 5.06026 9.32213 6.9298 9.32213C8.79933 9.32213 10.3203 10.8431 10.3203 12.7127C10.3203 14.5823 8.79933 16.1033 6.9298 16.1033C5.06026 16.1033 3.53925 14.5822 3.53925 12.7127ZM12.3833 23.5298H1.47633V22.2021C1.47633 19.6501 3.92277 17.5738 6.92985 17.5738C9.93692 17.5738 12.3833 19.6501 12.3833 22.2021V23.5298ZM16.0544 14.253C16.0544 12.6868 17.3286 11.4126 18.8948 11.4126C20.4611 11.4126 21.7353 12.6868 21.7353 14.253C21.7353 15.8192 20.4611 17.0934 18.8948 17.0934C17.3286 17.0935 16.0544 15.8193 16.0544 14.253ZM23.5231 23.5298H14.2665V22.4772C14.2665 20.3194 16.3427 18.564 18.8948 18.564C21.4469 18.564 23.5231 20.3195 23.5231 22.4772V23.5298Z"
    fill="#999999"
  />
<path
    d="M12.5057 8.36812L16.0325 4.85806C17.1419 3.74857 17.1419 1.94334 16.0325 0.833944C15.0564 -0.142123 13.5765 -0.244426 12.4982 0.440762C11.4202 -0.244181 9.94025 -0.142466 8.96394 0.833944C7.85581 1.94202 7.84714 3.74121 8.96629 4.86042L12.5057 8.36812ZM10.0038 1.87374C10.5406 1.33688 11.4112 1.33673 11.9482 1.87374L12.4982 2.42373L13.0482 1.87374C13.5849 1.33693 14.4556 1.33673 14.9926 1.87374C15.5287 2.40981 15.5287 3.28205 14.9939 3.81695L12.5035 6.2955L10.0038 3.81817C9.46653 3.28102 9.46643 2.41108 10.0038 1.87374Z"
    fill="#999999"
  />
</svg>
