<svg width="30" height="30" viewBox="0 0 30 30" fill="none" xmlns="http://www.w3.org/2000/svg">
<path d="M3.59989 0.268555C1.66541 0.268555 0.0917969 1.84228 0.0917969 3.77665C0.0917969 5.71102 1.66476 7.28464 3.59989 7.28464C5.53503 7.28464 7.10799 5.71102 7.10799 3.77665C7.10799 1.84228 5.53427 0.268555 3.59989 0.268555Z" fill="#333333"/>
<path d="M14.9544 0.268555C13.02 0.268555 11.4463 1.84228 11.4463 3.77665C11.4463 5.71102 13.02 7.28464 14.9544 7.28464C16.8889 7.28464 18.4628 5.71102 18.4628 3.77665C18.4628 1.84228 16.8895 0.268555 14.9544 0.268555Z" fill="#333333"/>
<path d="M26.4915 7.28474C28.4256 7.28474 29.9996 5.71113 29.9996 3.77676C29.9996 1.84238 28.4269 0.268555 26.4915 0.268555C24.5561 0.268555 22.9834 1.84228 22.9834 3.77665C22.9834 5.71102 24.5573 7.28474 26.4915 7.28474Z" fill="#333333"/>
<path d="M3.50875 18.5257C5.44312 18.5257 7.01717 16.9524 7.01717 15.0177C7.01717 13.0829 5.44312 11.5093 3.50875 11.5093C1.57437 11.5093 0 13.083 0 15.0177C0 16.9524 1.57437 18.5257 3.50875 18.5257Z" fill="#333333"/>
<path d="M14.8626 18.5257C16.7966 18.5257 18.3707 16.9524 18.3707 15.0177C18.3707 13.0829 16.7979 11.5093 14.8626 11.5093C12.9276 11.5093 11.3545 13.0829 11.3545 15.0177C11.3545 16.9524 12.9282 18.5257 14.8626 18.5257Z" fill="#333333"/>
<path d="M26.401 18.5257C28.3358 18.5257 29.9091 16.9524 29.9091 15.0177C29.9091 13.0829 28.3358 11.5093 26.401 11.5093C24.4662 11.5093 22.8916 13.0829 22.8916 15.0177C22.8916 16.9524 24.4656 18.5257 26.401 18.5257Z" fill="#333333"/>
<path d="M3.58882 22.7153C1.65445 22.7153 0.0800781 24.2886 0.0800781 26.2234C0.0800781 28.1575 1.65445 29.7314 3.58882 29.7314C5.5232 29.7314 7.09681 28.1582 7.09681 26.2234C7.09681 24.2886 5.5232 22.7153 3.58882 22.7153Z" fill="#333333"/>
<path d="M14.9433 22.7153C13.0088 22.7153 11.4346 24.2886 11.4346 26.2234C11.4346 28.1575 13.0083 29.7314 14.9433 29.7314C16.8774 29.7314 18.4513 28.1582 18.4513 26.2234C18.4513 24.2886 16.8774 22.7153 14.9433 22.7153Z" fill="#333333"/>
<path d="M26.4807 22.7153C24.5467 22.7153 22.9727 24.2886 22.9727 26.2234C22.9727 28.1575 24.5467 29.7314 26.4807 29.7314C28.4155 29.7314 29.9888 28.1582 29.9888 26.2234C29.9888 24.2886 28.4148 22.7153 26.4807 22.7153Z" fill="#333333"/>
</svg>
