<svg width="34" height="29" viewBox="0 0 34 29" fill="none" xmlns="http://www.w3.org/2000/svg">
<path fill-rule="evenodd" clip-rule="evenodd" d="M10.4171 1C5.33214 1 1 4.80215 1 9.74021C1 13.1467 2.59515 16.0148 4.70924 18.3904C6.81606 20.7581 9.5342 22.7454 11.9915 24.4086L16.2313 27.2786C16.6955 27.5929 17.3045 27.5929 17.7687 27.2786L22.0085 24.4086C24.4659 22.7454 27.1839 20.7581 29.2907 18.3904C31.4049 16.0148 33 13.1467 33 9.74021C33 4.80215 28.6679 1 23.5829 1C20.9616 1 18.6552 2.22906 17 3.81935C15.3448 2.22906 13.0383 1 10.4171 1Z" fill="#999999" stroke="#999999"/>
</svg>
