<svg width="24" height="24" viewBox="0 0 24 24" fill="none" xmlns="http://www.w3.org/2000/svg">
<path d="M11.1181 5.12106L11.1196 5.12238C11.1815 5.1769 11.2403 5.2315 11.2953 5.28621L12.0035 5.98985L12.7083 5.28292C12.7604 5.23073 12.8146 5.18042 12.8709 5.13213L12.8768 5.12709L12.8826 5.12195C15.1991 3.07345 19.177 3.97482 20.5332 6.68977C21.1777 7.98006 21.2765 9.80215 20.0396 12.0903C18.8366 14.3159 16.3766 16.9535 12.0001 19.8109C7.62366 16.9538 5.16366 14.3165 3.96051 12.0911C2.72359 9.80314 2.82222 7.98121 3.46669 6.69094C4.82277 3.97596 8.80099 3.07392 11.1181 5.12106Z" stroke="#545AF2" stroke-width="2"/>
</svg>
