<svg width="14" height="20" viewBox="0 0 14 20" fill="none" xmlns="http://www.w3.org/2000/svg">
<path d="M12.7973 3.42441C11.5835 1.32973 9.42759 0.05 7.03013 0.00109375C6.92779 -0.00101563 6.82478 -0.00101563 6.7224 0.00109375C4.32498 0.05 2.16904 1.32973 0.955211 3.42441C-0.285492 5.56551 -0.319437 8.13738 0.864391 10.3042L5.82388 19.3818C5.82611 19.3859 5.82834 19.3899 5.83064 19.3939C6.04884 19.7731 6.43974 19.9995 6.87634 19.9995C7.31291 19.9995 7.7038 19.7731 7.92197 19.3939C7.92427 19.3899 7.9265 19.3859 7.92873 19.3818L12.8882 10.3042C14.072 8.13738 14.038 5.56551 12.7973 3.42441ZM6.87627 9.06203C5.32545 9.06203 4.06377 7.80035 4.06377 6.24953C4.06377 4.69871 5.32545 3.43703 6.87627 3.43703C8.42709 3.43703 9.68877 4.69871 9.68877 6.24953C9.68877 7.80035 8.42712 9.06203 6.87627 9.06203Z" fill="#999999"/>
</svg>
