<svg width="25" height="25" viewBox="0 0 25 25" fill="none" xmlns="http://www.w3.org/2000/svg">
<g clip-path="url(#clip0_1257_11935)">
<path d="M0.612305 0V18.9862C0.612305 20.275 1.66083 21.3235 2.94961 21.3235H8.70054V23.5294H5.75936V25H19.004V23.5294H16.0535V21.3235H22.0495C23.3383 21.3235 24.3868 20.275 24.3868 18.9862V0H0.612305ZM18.0143 1.47059H19.73V6.98529C19.73 7.45828 19.3451 7.84313 18.8721 7.84313C18.3991 7.84313 18.0143 7.45828 18.0143 6.98529V1.47059ZM14.828 1.47059H16.5437V6.98529C16.5437 7.45828 16.1588 7.84313 15.6858 7.84313C15.2128 7.84313 14.828 7.45828 14.828 6.98529V1.47059ZM11.6386 1.47059H13.3543V6.98529C13.3543 7.45828 12.9694 7.84313 12.4964 7.84313C12.0234 7.84313 11.6386 7.45828 11.6386 6.98529V1.47059ZM5.26917 9.14926C5.53485 9.25494 5.82412 9.31372 6.12701 9.31372C6.74211 9.31372 7.30191 9.07352 7.71858 8.68254C8.13525 9.07352 8.69505 9.31372 9.31015 9.31372C9.61422 9.31372 9.90461 9.2545 10.1711 9.14803V12.5H5.26917V9.14926ZM10.168 1.47059V6.98529C10.168 7.45828 9.78314 7.84313 9.31015 7.84313C8.85108 7.84313 8.47613 7.48034 8.45441 7.02651C8.45466 7.01274 8.45544 6.99911 8.45544 6.98529V1.47059H10.168ZM5.26917 1.47059H6.98172V6.98529C6.98172 6.99911 6.9825 7.01274 6.98275 7.02651C6.96103 7.48034 6.58608 7.84313 6.12701 7.84313C5.65402 7.84313 5.26917 7.45828 5.26917 6.98529V1.47059ZM2.08289 1.47059H3.79858V6.98529C3.79858 7.45828 3.41373 7.84313 2.94074 7.84313C2.46775 7.84313 2.08289 7.45828 2.08289 6.98529V1.47059ZM14.5829 23.5294H10.1711V21.3235H14.5829V23.5294ZM22.9162 18.9862C22.9162 19.4641 22.5274 19.8529 22.0495 19.8529H2.94961C2.47172 19.8529 2.08289 19.4641 2.08289 18.9862V18.3823H14.3378H20.9554H22.9162V18.9862ZM19.4849 16.9118H15.8084V12.2549H19.4849V16.9118ZM20.9554 16.9118V10.7843H14.3378V16.9118H2.08289V9.14926C2.34858 9.25494 2.63784 9.31372 2.94074 9.31372C3.24363 9.31372 3.53289 9.25494 3.79858 9.14926V13.9706H11.6417V9.15048C11.9066 9.25539 12.1947 9.31372 12.4965 9.31372C13.1131 9.31372 13.6742 9.0723 14.0912 8.67955C14.5081 9.0723 15.0692 9.31372 15.6858 9.31372C16.3017 9.31372 16.8621 9.07289 17.279 8.68107C17.6958 9.07289 18.2562 9.31372 18.8721 9.31372C19.488 9.31372 20.0484 9.07289 20.4652 8.68107C20.8821 9.07289 21.4425 9.31372 22.0584 9.31372C22.3613 9.31372 22.6505 9.25494 22.9162 9.14926V16.9118H20.9554ZM22.9162 6.98529C22.9162 7.45828 22.5314 7.84313 22.0584 7.84313C21.5854 7.84313 21.2005 7.45828 21.2005 6.98529V1.47059H22.9162V5.39215V6.98529Z" fill="#999999"/>
</g>
<defs>
<clipPath id="clip0_1257_11935">
<rect width="25" height="25" fill="white"/>
</clipPath>
</defs>
</svg>
