<svg width="24" height="24" viewBox="0 0 24 24" fill="none" xmlns="http://www.w3.org/2000/svg">
<path d="M21.6632 7.93127C21.1374 6.67625 20.3724 5.53553 19.4109 4.57268C18.4523 3.60815 17.3135 2.84129 16.0593 2.31565C14.7745 1.77455 13.3941 1.49718 12 1.50002H11.9531C10.5351 1.50705 9.16402 1.7883 7.87261 2.34143C6.62919 2.87246 5.50114 3.64068 4.55152 4.60315C3.59933 5.56383 2.8431 6.70057 2.32496 7.95002C1.78711 9.24931 1.51457 10.6431 1.5234 12.0492C1.53043 13.6758 1.91949 15.2906 2.64606 16.7344V20.2969C2.64606 20.8922 3.12887 21.375 3.72184 21.375H7.27965C8.73013 22.1069 10.3308 22.492 11.9554 22.5H12.0046C13.4062 22.5 14.7632 22.2281 16.0429 21.6961C17.2908 21.1767 18.4252 20.4188 19.3828 19.4649C20.3484 18.5063 21.1078 17.386 21.6398 16.1367C22.1906 14.843 22.4718 13.4672 22.4789 12.0469C22.4835 10.6196 22.207 9.23439 21.6632 7.93127ZM7.32183 13.125C6.70308 13.125 6.19918 12.6211 6.19918 12C6.19918 11.3789 6.70308 10.875 7.32183 10.875C7.94058 10.875 8.44449 11.3789 8.44449 12C8.44449 12.6211 7.94293 13.125 7.32183 13.125ZM12 13.125C11.3812 13.125 10.8773 12.6211 10.8773 12C10.8773 11.3789 11.3812 10.875 12 10.875C12.6187 10.875 13.1226 11.3789 13.1226 12C13.1226 12.6211 12.6187 13.125 12 13.125ZM16.6781 13.125C16.0593 13.125 15.5554 12.6211 15.5554 12C15.5554 11.3789 16.0593 10.875 16.6781 10.875C17.2968 10.875 17.8007 11.3789 17.8007 12C17.8007 12.6211 17.2968 13.125 16.6781 13.125Z" fill="#545AF2"/>
</svg>
