<svg width="22" height="22" viewBox="0 0 22 22" fill="none" xmlns="http://www.w3.org/2000/svg">
<path d="M11 0C4.93488 0 0 4.93488 0 11V21.3125C0 21.692 0.308 22 0.6875 22H11C17.0651 22 22 17.0651 22 11C22 4.93488 17.0651 0 11 0ZM11.6875 13.75H6.1875C5.808 13.75 5.5 13.442 5.5 13.0625C5.5 12.683 5.808 12.375 6.1875 12.375H11.6875C12.067 12.375 12.375 12.683 12.375 13.0625C12.375 13.442 12.067 13.75 11.6875 13.75ZM15.8125 9.625H6.1875C5.808 9.625 5.5 9.317 5.5 8.9375C5.5 8.558 5.808 8.25 6.1875 8.25H15.8125C16.192 8.25 16.5 8.558 16.5 8.9375C16.5 9.317 16.192 9.625 15.8125 9.625Z" fill="#999999"/>
</svg>
