<svg width="20" height="27" viewBox="0 0 20 27" fill="none" xmlns="http://www.w3.org/2000/svg">
<path fill-rule="evenodd" clip-rule="evenodd" d="M11.3187 1.3187C11.3187 0.59041 10.7283 0 9.99999 0C9.27167 0 8.68129 0.59041 8.68129 1.3187V2.30773H7.94624C5.012 2.30773 2.58348 4.5891 2.40032 7.51759L2.10888 12.1772C1.99776 13.9537 1.40133 15.6658 0.384526 17.1268C-0.534189 18.4468 0.283698 20.2701 1.88056 20.4617L6.37355 21.0009V22.418C6.37355 24.4208 7.99714 26.0444 9.99999 26.0444C12.0028 26.0444 13.6264 24.4208 13.6264 22.418V21.0009L18.1194 20.4617C19.7163 20.2701 20.5342 18.4468 19.6155 17.1268C18.5986 15.6658 18.0022 13.9537 17.8911 12.1772L17.5997 7.51759C17.4165 4.5891 14.988 2.30773 12.0537 2.30773H11.3187V1.3187ZM8.35136 22.418C8.35136 23.3284 9.08931 24.0664 9.99974 24.0664C10.9102 24.0664 11.6481 23.3284 11.6481 22.418V21.4289H8.35136V22.418Z" fill="#787885"/>
</svg>
