<svg width="57" height="64" viewBox="0 0 57 64" fill="none" xmlns="http://www.w3.org/2000/svg">
<path d="M12.625 0C10.425 0 8.625 1.8 8.625 4V60C8.625 62.2 10.425 64 12.625 64H52.625C54.825 64 56.625 62.2 56.625 60V16L40.625 0H12.625Z" fill="#E2E5E7"/>
<path d="M44.625 16H56.625L40.625 0V12C40.625 14.2 42.425 16 44.625 16Z" fill="#B0B7BD"/>
<path d="M56.625 28L44.625 16H56.625V28Z" fill="#CAD1D8"/>
<path d="M48.625 52C48.625 53.1 47.725 54 46.625 54H2.625C1.525 54 0.625 53.1 0.625 52V32C0.625 30.9 1.525 30 2.625 30H46.625C47.725 30 48.625 30.9 48.625 32V52Z" fill="#F15642"/>
<path d="M9.34277 37.894C9.34277 37.366 9.75877 36.79 10.4288 36.79H14.1228C16.2028 36.79 18.0748 38.182 18.0748 40.85C18.0748 43.378 16.2028 44.786 14.1228 44.786H11.4528V46.898C11.4528 47.602 11.0048 48 10.4288 48C9.90077 48 9.34277 47.602 9.34277 46.898V37.894ZM11.4528 38.804V42.788H14.1228C15.1948 42.788 16.0428 41.842 16.0428 40.85C16.0428 39.732 15.1948 38.804 14.1228 38.804H11.4528Z" fill="white"/>
<path d="M21.2065 48.0001C20.6785 48.0001 20.1025 47.7121 20.1025 47.0101V37.9261C20.1025 37.3521 20.6785 36.9341 21.2065 36.9341H24.8685C32.1765 36.9341 32.0165 48.0001 25.0125 48.0001H21.2065ZM22.2145 38.8861V46.0501H24.8685C29.1865 46.0501 29.3785 38.8861 24.8685 38.8861H22.2145Z" fill="white"/>
<path d="M34.6071 39.0141V41.5561H38.6851C39.2611 41.5561 39.8371 42.1321 39.8371 42.6901C39.8371 43.2181 39.2611 43.6501 38.6851 43.6501H34.6071V47.0081C34.6071 47.5681 34.2091 47.9981 33.6491 47.9981C32.9451 47.9981 32.5151 47.5681 32.5151 47.0081V37.9241C32.5151 37.3501 32.9471 36.9321 33.6491 36.9321H39.2631C39.9671 36.9321 40.3831 37.3501 40.3831 37.9241C40.3831 38.4361 39.9671 39.0121 39.2631 39.0121H34.6071V39.0141Z" fill="white"/>
<path d="M46.625 54H8.625V56H46.625C47.725 56 48.625 55.1 48.625 54V52C48.625 53.1 47.725 54 46.625 54Z" fill="#CAD1D8"/>
</svg>
