<svg width="38" height="38" viewBox="0 0 38 38" fill="none" xmlns="http://www.w3.org/2000/svg">
<path d="M37.5729 32.2993C37.408 31.5073 36.6322 30.999 35.8403 31.1638C35.0482 31.3288 34.5398 32.1045 34.7047 32.8965C34.7997 33.3527 34.6866 33.8203 34.3945 34.1796C34.2252 34.3876 33.848 34.7367 33.2227 34.7367H26.6084C25.7994 34.7367 25.1436 35.3925 25.1436 36.2015C25.1436 37.0105 25.7994 37.6663 26.6084 37.6663H33.2227C34.5651 37.6663 35.8207 37.0692 36.6674 36.028C37.5183 34.9816 37.8484 33.6226 37.5729 32.2993Z" fill="white"/>
<path d="M20.4057 20.1447C25.2182 20.588 29.5959 23.1673 32.3224 27.2337C32.7728 27.9056 33.6829 28.0852 34.3548 27.6346C35.0268 27.184 35.2062 26.274 34.7557 25.6021C32.3521 22.0172 28.8616 19.411 24.8818 18.1012C27.3072 16.2827 28.8794 13.3853 28.8794 10.1274C28.8794 4.63494 24.4109 0.166504 18.9184 0.166504C13.426 0.166504 8.95749 4.63494 8.95749 10.1274C8.95749 13.3874 10.5316 16.2865 12.9597 18.1048C10.7352 18.837 8.64782 19.9759 6.82102 21.4784C3.47151 24.2336 1.14262 28.0766 0.263497 32.2995C-0.0120399 33.6227 0.318063 34.9817 1.16899 36.0281C2.01567 37.0694 3.27126 37.6665 4.61372 37.6665H11.0083C11.8173 37.6665 12.4731 37.0107 12.4731 36.2017C12.4731 35.3926 11.8173 34.7368 11.0083 34.7368H4.61357C3.98823 34.7368 3.61103 34.3878 3.44177 34.1797C3.14961 33.8204 3.03652 33.3528 3.13151 32.8966C4.56589 26.0069 10.381 20.8701 17.281 20.1609L14.4845 32.8837C14.3773 33.3717 14.5262 33.8807 14.8794 34.2339L17.8092 37.1641C18.0839 37.4389 18.4566 37.5933 18.8452 37.5933C19.2337 37.5933 19.6063 37.4389 19.881 37.1641L22.8106 34.2339C23.1638 33.8806 23.3127 33.3717 23.2054 32.8838L20.4057 20.1447ZM11.8872 10.1274C11.8872 6.25037 15.0414 3.09619 18.9184 3.09619C22.7955 3.09619 25.9497 6.25037 25.9497 10.1274C25.9497 13.8875 22.983 16.9675 19.2674 17.15C19.1513 17.1479 19.035 17.1465 18.9184 17.1465C18.8041 17.1465 18.6899 17.1482 18.5757 17.1503C14.8572 16.9709 11.8872 13.8896 11.8872 10.1274ZM18.8451 34.0566L17.5182 32.7295L18.8451 26.6925L20.1719 32.7295L18.8451 34.0566Z" fill="white"/>
</svg>
