<svg width="25" height="25" viewBox="0 0 25 25" fill="none" xmlns="http://www.w3.org/2000/svg">
<g clip-path="url(#clip0_1257_21761)">
<path d="M24.3194 18.3475L20.8306 14.8587C19.5846 13.6126 17.4664 14.1111 16.968 15.7309C16.5942 16.8523 15.3482 17.4753 14.2268 17.2261C11.7348 16.6031 8.37053 13.3634 7.74752 10.7468C7.37372 9.62537 8.12133 8.37936 9.24273 8.00561C10.8625 7.5072 11.361 5.38899 10.1149 4.14298L6.62612 0.654155C5.62931 -0.218052 4.1341 -0.218052 3.26189 0.654155L0.894475 3.02157C-1.47294 5.51359 1.14368 12.1174 6.99992 17.9737C12.8562 23.8299 19.46 26.5712 21.952 24.0791L24.3194 21.7117C25.1917 20.7149 25.1917 19.2197 24.3194 18.3475Z" fill="#999999"/>
</g>
<defs>
<clipPath id="clip0_1257_21761">
<rect width="25" height="25" fill="white"/>
</clipPath>
</defs>
</svg>
