<svg width="14" height="14" viewBox="0 0 14 14" fill="none" xmlns="http://www.w3.org/2000/svg">
<path fill-rule="evenodd" clip-rule="evenodd" d="M12.8602 7.78614C13.3337 7.78613 13.7176 7.40222 13.7176 6.92865C13.7176 6.45517 13.3336 6.07125 12.8602 6.07117L8.00128 6.07118L8.00123 1.21241C8.00124 0.738848 7.61735 0.354959 7.14378 0.354961C6.67031 0.354888 6.28639 0.738804 6.28638 1.21236L6.2864 6.07127L1.42748 6.07125C0.953912 6.07125 0.57002 6.45514 0.570027 6.9287C0.570018 7.40226 0.953907 7.78615 1.42747 7.78615L6.28632 7.78615L6.28632 12.645C6.28632 13.1186 6.67023 13.5025 7.1438 13.5025C7.61736 13.5025 8.00125 13.1186 8.00125 12.645L8.00128 7.78615L12.8602 7.78614Z" fill="white"/>
</svg>
