<svg width="25" height="25" viewBox="0 0 25 25" fill="none" xmlns="http://www.w3.org/2000/svg">
<path d="M24.2722 4.17988C24.2706 4.17988 24.2691 4.17969 24.2676 4.17969H17.627V3.44727C17.627 2.23572 16.6412 1.25 15.4297 1.25H9.57031C8.35876 1.25 7.37305 2.23572 7.37305 3.44727V4.17969H0.732422C0.324631 4.17969 0 4.51385 0 4.91211V21.0254C0 22.2369 0.985718 23.2227 2.19727 23.2227H22.8027C24.0143 23.2227 25 22.2369 25 21.0254V4.92756C25 4.92661 25 4.92565 25 4.9247C24.972 4.44366 24.6761 4.18255 24.2722 4.17988ZM8.83789 3.44727C8.83789 3.04348 9.16653 2.71484 9.57031 2.71484H15.4297C15.8335 2.71484 16.1621 3.04348 16.1621 3.44727V4.17969H8.83789V3.44727ZM23.2513 5.64453L20.9768 12.4679C20.8771 12.7675 20.5978 12.9688 20.2822 12.9688H16.1621V12.2363C16.1621 11.8318 15.8342 11.5039 15.4297 11.5039H9.57031C9.16576 11.5039 8.83789 11.8318 8.83789 12.2363V12.9688H4.71783C4.40216 12.9688 4.12292 12.7675 4.02317 12.4679L1.74866 5.64453H23.2513ZM14.6973 12.9688V14.4336H10.3027V12.9688H14.6973ZM23.5352 21.0254C23.5352 21.4292 23.2065 21.7578 22.8027 21.7578H2.19727C1.79348 21.7578 1.46484 21.4292 1.46484 21.0254V9.42547L2.63348 12.9312C2.93293 13.8299 3.77064 14.4336 4.71783 14.4336H8.83789V15.166C8.83789 15.5706 9.16576 15.8984 9.57031 15.8984H15.4297C15.8342 15.8984 16.1621 15.5706 16.1621 15.166V14.4336H20.2822C21.2294 14.4336 22.0671 13.8299 22.3665 12.9312L23.5352 9.42547V21.0254Z" fill="#999999"/>
</svg>
