<svg width="24" height="24" viewBox="0 0 24 24" fill="none" xmlns="http://www.w3.org/2000/svg">
<path d="M12.1475 0C12.2367 0.0374859 12.3324 0.0645485 12.414 0.11447C12.6329 0.248268 12.7344 0.454555 12.7481 0.706797C12.7514 0.767852 12.7514 0.829136 12.7514 0.890316C12.7516 5.06879 12.7506 9.24727 12.7484 13.4257C12.7483 13.5544 12.7858 13.6002 12.9082 13.6409C14.0994 14.0371 14.7764 14.8772 14.9689 16.1039C15.1595 17.319 14.5041 18.5933 13.4167 19.1556C13.2407 19.2466 13.0497 19.3119 12.8603 19.3722C12.772 19.4003 12.7498 19.4384 12.7499 19.5244C12.7524 20.7363 12.7525 21.9482 12.7503 23.1602C12.7527 23.262 12.7429 23.3638 12.7212 23.4634C12.6336 23.8193 12.3193 24.0248 11.9208 23.9968C11.7543 23.9867 11.5967 23.918 11.476 23.8027C11.3553 23.6875 11.2794 23.5333 11.2617 23.3674C11.2535 23.2945 11.2496 23.2211 11.25 23.1477C11.2493 21.9399 11.2497 20.732 11.2512 19.5242C11.2513 19.4379 11.2293 19.3993 11.1401 19.3733C9.84852 18.9957 9.00085 17.8249 9.00232 16.4692C9.0037 15.1941 9.89677 13.9413 11.1623 13.6175C11.2333 13.5993 11.2565 13.5665 11.2501 13.499C11.2466 13.4626 11.2495 13.4256 11.2495 13.3889C11.2495 9.20631 11.2494 5.02375 11.2491 0.841194C11.2491 0.646329 11.2711 0.459694 11.3897 0.294758C11.5057 0.133422 11.6723 0.0562148 11.8536 0H12.1475ZM12.0126 14.9957C11.2098 14.981 10.5179 15.6551 10.5028 16.4666C10.4875 17.2844 11.1521 17.9807 11.9639 17.9974C12.7909 18.0144 13.4824 17.352 13.4983 16.5276C13.5014 16.3295 13.4655 16.1326 13.3926 15.9484C13.3196 15.7641 13.2111 15.596 13.0731 15.4537C12.9351 15.3114 12.7704 15.1977 12.5885 15.1192C12.4065 15.0406 12.2108 14.9986 12.0126 14.9957Z" fill="black"/>
<path d="M3.15918 0C3.1921 0.0133804 3.22444 0.0284696 3.25803 0.0398723C3.39476 0.0844572 3.51469 0.169595 3.60186 0.283968C3.68903 0.398341 3.73932 0.536532 3.74604 0.680171C3.74939 0.741228 3.74825 0.802562 3.74825 0.863768C3.74834 3.56125 3.74778 6.25873 3.74656 8.95621C3.74648 9.049 3.76191 9.09688 3.86446 9.126C5.02751 9.45631 5.83667 10.4393 5.98305 11.6896C6.13212 12.9629 5.3813 14.2592 4.2043 14.7554C4.08079 14.8075 3.94858 14.8388 3.82436 14.8894C3.79107 14.9029 3.76663 14.9495 3.74904 14.9862C3.7379 15.0094 3.74694 15.0423 3.74694 15.0709C3.74694 17.7766 3.74722 20.4822 3.74779 23.1878C3.74788 23.3895 3.71392 23.5776 3.58072 23.7365C3.37922 23.977 3.03547 24.0624 2.72196 23.9515C2.43593 23.8503 2.25287 23.596 2.25191 23.2742C2.24869 22.1928 2.25012 21.1113 2.25003 20.0299C2.2499 18.3649 2.25079 16.6999 2.2527 15.0349C2.25293 14.9331 2.22111 14.8973 2.12673 14.8702C0.99848 14.547 0.156378 13.5444 0.0223594 12.3728C0.0166614 12.3376 0.00919867 12.3027 0 12.2682V11.7295C0.00926679 11.695 0.016781 11.6601 0.0225134 11.6248C0.156328 10.4584 1.00391 9.44837 2.12729 9.12911C2.23454 9.09863 2.25357 9.05119 2.25349 8.95285C2.25121 6.25633 2.25064 3.5598 2.25175 0.863271C2.25175 0.802087 2.25064 0.740781 2.2539 0.679738C2.2608 0.536176 2.31117 0.3981 2.39833 0.283808C2.48549 0.169517 2.60534 0.0844059 2.74198 0.0397559C2.77556 0.0283753 2.8079 0.0133407 2.84082 0H3.15918ZM3.00459 13.4969C3.82042 13.4945 4.50004 12.8156 4.50235 12.0007C4.50468 11.179 3.82241 10.4988 2.99788 10.5008C2.18119 10.5028 1.5034 11.1796 1.5 11.9966C1.49659 12.8173 2.18058 13.4993 3.00459 13.4969Z" fill="black"/>
<path d="M23.9996 7.71355C23.9687 7.88556 23.9518 8.06152 23.9047 8.22894C23.5992 9.31314 22.9332 10.0556 21.8362 10.3797C21.771 10.399 21.7353 10.4219 21.7458 10.4942C21.7484 10.5268 21.7486 10.5595 21.7466 10.592C21.7466 14.7829 21.746 18.9738 21.7449 23.1647C21.7475 23.2785 21.7339 23.3922 21.7045 23.5022C21.6029 23.8441 21.2604 24.0436 20.8864 23.9919C20.524 23.9417 20.2674 23.6664 20.2518 23.3097C20.2489 23.2445 20.2497 23.1791 20.2497 23.1139C20.2496 18.9271 20.2505 14.7403 20.2525 10.5535C20.2526 10.4389 20.2186 10.3991 20.1107 10.3634C18.8734 9.95482 18.1846 9.08524 18.0193 7.80596C17.8575 6.55412 18.6004 5.26531 19.7516 4.76221C19.9078 4.69392 20.0725 4.6449 20.2513 4.58046C20.2513 4.54595 20.2513 4.49824 20.2513 4.45054C20.2513 3.27122 20.2611 2.09178 20.2463 0.912642C20.2407 0.458063 20.385 0.136996 20.8404 0H21.1588C21.6142 0.136621 21.7584 0.457744 21.7528 0.91189C21.7383 2.0902 21.7479 3.2688 21.7479 4.44729C21.7479 4.49535 21.7479 4.5434 21.7479 4.58974C21.7837 4.6006 21.8069 4.60779 21.8301 4.61465C22.9416 4.94266 23.6108 5.69511 23.9127 6.79447C23.9575 6.95772 23.9714 7.12946 23.9996 7.29727V7.71355ZM20.9999 8.9971C21.815 8.99654 22.4981 8.317 22.502 7.50285C22.5059 6.68468 21.8202 5.99839 20.9989 5.99859C20.179 5.99879 19.4924 6.68709 19.4972 7.504C19.502 8.3189 20.1851 8.99767 20.9999 8.9971Z" fill="black"/>
</svg>
