<svg width="17" height="19" viewBox="0 0 17 19" fill="none" xmlns="http://www.w3.org/2000/svg">
<path fill-rule="evenodd" clip-rule="evenodd" d="M14 0C12.3431 0 11 1.34315 11 3C11 3.26447 11.0342 3.52096 11.0985 3.76526C11.0276 3.7799 10.9577 3.80512 10.8909 3.84157L8.1343 5.34513L4.6279 7.34881C4.59206 7.36929 4.55855 7.39228 4.52747 7.41743C4.08006 7.15224 3.55781 7 3 7C1.34315 7 0 8.3431 0 10C0 11.6569 1.34315 13 3 13C3.87407 13 4.66083 12.6262 5.20915 12.0297L8.1357 13.6556L11.0902 15.2671C11.0313 15.5017 11 15.7472 11 16C11 17.6569 12.3431 19 14 19C15.6569 19 17 17.6569 17 16C17 14.3431 15.6569 13 14 13C13.1356 13 12.3565 13.3656 11.8091 13.9506L8.8617 12.343L5.9163 10.7066C5.97101 10.48 6 10.2434 6 10C6 9.4603 5.85749 8.9539 5.60805 8.5164L8.8657 6.65486L11.6091 5.15842C11.6762 5.12185 11.7354 5.07653 11.7862 5.02466C12.3347 5.62408 13.1235 6 14 6C15.6569 6 17 4.65685 17 3C17 1.34315 15.6569 0 14 0Z" fill="#666666"/>
</svg>
