<svg width="13" height="13" viewBox="0 0 13 13" fill="none" xmlns="http://www.w3.org/2000/svg">
<path d="M12.966 4.91196C12.8804 4.63728 12.6469 4.4428 12.3718 4.41682L8.61907 4.0613L7.13597 0.438008C7.02647 0.171808 6.77733 0 6.50001 0C6.22269 0 5.97344 0.171808 5.86464 0.438008L4.38154 4.0613L0.628237 4.41682C0.353102 4.44332 0.120119 4.63779 0.0340279 4.91196C-0.0515676 5.18665 0.0274817 5.48793 0.235569 5.67837L3.07232 8.27403L2.2359 12.1182C2.17471 12.4008 2.27984 12.6931 2.50459 12.8627C2.6254 12.9543 2.76733 13 2.90976 13C3.03215 13 3.15464 12.9661 3.26404 12.8977L6.50001 10.8787L9.73538 12.8977C9.97272 13.0457 10.2712 13.0322 10.4954 12.8627C10.7202 12.6931 10.8253 12.4008 10.7641 12.1182L9.92769 8.27403L12.7644 5.67837C12.9724 5.48793 13.0516 5.18727 12.966 4.91196Z" fill="#F0C80D"/>
</svg>
