<svg
  width="25"
  height="23"
  viewBox="0 0 25 23"
  fill="none"
  xmlns="http://www.w3.org/2000/svg"
>
<path
    fill-rule="evenodd"
    clip-rule="evenodd"
    d="M0 22.7273H4.54545V9.09091H0V22.7273ZM25 10.2273C25 8.97727 23.9773 7.95455 22.7273 7.95455H15.5682L16.7045 2.72727V2.38636C16.7045 1.93182 16.4773 1.47727 16.25 1.13636L15 0L7.5 7.5C7.04545 7.84091 6.81818 8.40909 6.81818 9.09091V20.4545C6.81818 21.7045 7.84091 22.7273 9.09091 22.7273H19.3182C20.2273 22.7273 21.0227 22.1591 21.3636 21.3636L24.7727 13.2955C24.8864 13.0682 24.8864 12.7273 24.8864 12.5V10.2273H25C25 10.3409 25 10.2273 25 10.2273Z"
    fill="#FFFFFF"
  />
</svg>
